0, 0, Header, 1, 8, 120
1, 0, Start_track
1, 0, Title_t, "untitled"
1, 0, Sequencer_specific, 3, 0, 0, 65
1, 0, Time_signature, 4, 2, 24, 8
1, 0, Key_signature, 0, "major"
1, 0, Tempo, 1200000
1, 1680, Tempo, 1276596
1, 1720, Tempo, 1333333
1, 1760, Tempo, 1276596
1, 1920, Tempo, 1200000
1, 6480, Tempo, 1276596
1, 6520, Tempo, 1333333
1, 6560, Tempo, 1276596
1, 6720, Tempo, 1200000
1, 8760, Tempo, 1276596
1, 8800, Tempo, 1333333
1, 8840, Tempo, 1276596
1, 9000, Tempo, 1200000
1, 10080, Tempo, 1250000
1, 10200, Tempo, 1304348
1, 10320, Tempo, 1395349
1, 10440, Tempo, 1428571
1, 10480, Tempo, 1463415
1, 10520, Tempo, 1500000
1, 10560, Tempo, 1200000
1, 17520, Tempo, 1276596
1, 17560, Tempo, 1333333
1, 17600, Tempo, 1276596
1, 17760, Tempo, 1200000
1, 18320, Tempo, 1276596
1, 18360, Tempo, 1333333
1, 18400, Tempo, 1276596
1, 18440, Tempo, 1200000
1, 19200, Tempo, 1250000
1, 19320, Tempo, 1333333
1, 19440, Tempo, 1500000
1, 19560, Tempo, 1578947
1, 19680, Tempo, 1333333
1, 19880, Tempo, 1304348
1, 19920, Tempo, 1276596
1, 19960, Tempo, 1250000
1, 20000, Tempo, 1224490
1, 20040, Tempo, 1200000
1, 27600, Tempo, 1276596
1, 27640, Tempo, 1333333
1, 27680, Tempo, 1276596
1, 27720, Tempo, 1200000
1, 28200, Tempo, 1276596
1, 28240, Tempo, 1333333
1, 28280, Tempo, 1428571
1, 28320, Tempo, 1276596
1, 29280, Tempo, 1200000
1, 30120, Tempo, 1333333
1, 30160, Tempo, 1500000
1, 30200, Tempo, 1714286
1, 30240, Tempo, 1200000
1, 31080, Tempo, 1333333
1, 31120, Tempo, 1500000
1, 31160, Tempo, 1714286
1, 31200, Tempo, 1333333
1, 31440, Tempo, 1428571
1, 31680, Tempo, 1500000
1, 32040, Tempo, 1714286
1, 32080, Tempo, 1875000
1, 32120, Tempo, 2000000
1, 32160, Tempo, 2400000
1, 32160, End_track
2, 0, Start_track
2, 0, MIDI_port, 0
2, 0, Title_t, "1st Mvmt Sonata No.14, Opus 27, No.2"
2, 0, Control_c, 0, 0, 0
2, 0, Program_c, 0, 0
2, 0, Control_c, 0, 64, 56
2, 1, Control_c, 0, 64, 88
2, 2, Control_c, 0, 64, 127
2, 40, Note_on_c, 0, 61, 30
2, 80, Note_on_c, 0, 61, 0
2, 80, Note_on_c, 0, 64, 43
2, 120, Note_on_c, 0, 64, 0
2, 160, Note_on_c, 0, 61, 29
2, 200, Note_on_c, 0, 61, 0
2, 200, Note_on_c, 0, 64, 32
2, 240, Note_on_c, 0, 64, 0
2, 280, Note_on_c, 0, 61, 25
2, 320, Note_on_c, 0, 61, 0
2, 320, Note_on_c, 0, 64, 25
2, 360, Note_on_c, 0, 64, 0
2, 400, Note_on_c, 0, 61, 29
2, 440, Note_on_c, 0, 61, 0
2, 440, Note_on_c, 0, 64, 29
2, 480, Note_on_c, 0, 64, 0
2, 483, Control_c, 0, 64, 88
2, 485, Control_c, 0, 64, 24
2, 487, Control_c, 0, 64, 0
2, 506, Control_c, 0, 64, 40
2, 507, Control_c, 0, 64, 88
2, 510, Control_c, 0, 64, 127
2, 520, Note_on_c, 0, 61, 27
2, 558, Note_on_c, 0, 64, 27
2, 561, Note_on_c, 0, 61, 0
2, 598, Note_on_c, 0, 64, 0
2, 640, Note_on_c, 0, 61, 29
2, 680, Note_on_c, 0, 61, 0
2, 680, Note_on_c, 0, 64, 27
2, 720, Note_on_c, 0, 64, 0
2, 760, Note_on_c, 0, 61, 25
2, 800, Note_on_c, 0, 61, 0
2, 800, Note_on_c, 0, 64, 34
2, 840, Note_on_c, 0, 64, 0
2, 880, Note_on_c, 0, 61, 31
2, 920, Note_on_c, 0, 61, 0
2, 920, Note_on_c, 0, 64, 37
2, 960, Note_on_c, 0, 64, 0
2, 960, Note_on_c, 0, 57, 41
2, 961, Control_c, 0, 64, 72
2, 963, Control_c, 0, 64, 0
2, 990, Control_c, 0, 64, 56
2, 991, Control_c, 0, 64, 127
2, 1000, Note_on_c, 0, 57, 0
2, 1000, Note_on_c, 0, 61, 25
2, 1040, Note_on_c, 0, 61, 0
2, 1040, Note_on_c, 0, 64, 33
2, 1080, Note_on_c, 0, 64, 0
2, 1080, Note_on_c, 0, 57, 28
2, 1120, Note_on_c, 0, 57, 0
2, 1120, Note_on_c, 0, 61, 33
2, 1160, Note_on_c, 0, 61, 0
2, 1160, Note_on_c, 0, 64, 32
2, 1200, Note_on_c, 0, 64, 0
2, 1200, Note_on_c, 0, 57, 36
2, 1200, Control_c, 0, 64, 0
2, 1201, Control_c, 0, 64, 88
2, 1227, Control_c, 0, 64, 56
2, 1230, Control_c, 0, 64, 127
2, 1240, Note_on_c, 0, 62, 37
2, 1278, Note_on_c, 0, 57, 0
2, 1280, Note_on_c, 0, 62, 0
2, 1280, Note_on_c, 0, 66, 42
2, 1320, Note_on_c, 0, 66, 0
2, 1320, Note_on_c, 0, 57, 33
2, 1360, Note_on_c, 0, 57, 0
2, 1360, Note_on_c, 0, 62, 31
2, 1400, Note_on_c, 0, 62, 0
2, 1400, Note_on_c, 0, 66, 34
2, 1438, Control_c, 0, 64, 40
2, 1440, Note_on_c, 0, 66, 0
2, 1441, Control_c, 0, 64, 0
2, 1461, Control_c, 0, 64, 88
2, 1463, Control_c, 0, 64, 127
2, 1480, Note_on_c, 0, 60, 26
2, 1520, Note_on_c, 0, 60, 0
2, 1520, Note_on_c, 0, 66, 36
2, 1560, Note_on_c, 0, 66, 0
2, 1600, Note_on_c, 0, 61, 28
2, 1640, Note_on_c, 0, 61, 0
2, 1640, Note_on_c, 0, 64, 33
2, 1680, Note_on_c, 0, 64, 0
2, 1685, Control_c, 0, 64, 72
2, 1687, Control_c, 0, 64, 0
2, 1707, Control_c, 0, 64, 24
2, 1710, Control_c, 0, 64, 88
2, 1711, Control_c, 0, 64, 127
2, 1720, Note_on_c, 0, 61, 26
2, 1760, Note_on_c, 0, 61, 0
2, 1760, Note_on_c, 0, 63, 46
2, 1800, Note_on_c, 0, 63, 0
2, 1840, Note_on_c, 0, 60, 38
2, 1880, Note_on_c, 0, 60, 0
2, 1880, Note_on_c, 0, 63, 25
2, 1920, Note_on_c, 0, 63, 0
2, 1925, Control_c, 0, 64, 104
2, 1927, Control_c, 0, 64, 40
2, 1928, Control_c, 0, 64, 0
2, 1950, Control_c, 0, 64, 72
2, 1951, Control_c, 0, 64, 127
2, 2000, Note_on_c, 0, 61, 35
2, 2040, Note_on_c, 0, 61, 0
2, 2080, Note_on_c, 0, 61, 22
2, 2120, Note_on_c, 0, 61, 0
2, 2120, Note_on_c, 0, 64, 21
2, 2160, Note_on_c, 0, 64, 0
2, 2200, Note_on_c, 0, 61, 27
2, 2240, Note_on_c, 0, 61, 0
2, 2240, Note_on_c, 0, 64, 39
2, 2280, Note_on_c, 0, 64, 0
2, 2280, Note_on_c, 0, 68, 55
2, 2320, Note_on_c, 0, 61, 28
2, 2360, Note_on_c, 0, 61, 0
2, 2360, Note_on_c, 0, 64, 26
2, 2370, Note_on_c, 0, 68, 0
2, 2370, Note_on_c, 0, 68, 48
2, 2400, Note_on_c, 0, 68, 0
2, 2400, Note_on_c, 0, 64, 0
2, 2400, Note_on_c, 0, 68, 55
2, 2411, Control_c, 0, 64, 72
2, 2413, Control_c, 0, 64, 0
2, 2440, Note_on_c, 0, 63, 31
2, 2441, Control_c, 0, 64, 56
2, 2442, Control_c, 0, 64, 127
2, 2443, Control_c, 0, 64, 104
2, 2480, Note_on_c, 0, 63, 0
2, 2480, Note_on_c, 0, 66, 33
2, 2520, Note_on_c, 0, 66, 0
2, 2560, Note_on_c, 0, 63, 26
2, 2600, Note_on_c, 0, 63, 0
2, 2600, Note_on_c, 0, 66, 27
2, 2640, Note_on_c, 0, 66, 0
2, 2680, Note_on_c, 0, 63, 31
2, 2720, Note_on_c, 0, 63, 0
2, 2720, Note_on_c, 0, 66, 33
2, 2759, Note_on_c, 0, 68, 0
2, 2760, Note_on_c, 0, 66, 0
2, 2760, Note_on_c, 0, 68, 49
2, 2800, Note_on_c, 0, 63, 32
2, 2840, Note_on_c, 0, 63, 0
2, 2840, Note_on_c, 0, 66, 38
2, 2850, Note_on_c, 0, 68, 0
2, 2850, Note_on_c, 0, 68, 52
2, 2880, Note_on_c, 0, 68, 0
2, 2880, Note_on_c, 0, 66, 0
2, 2880, Note_on_c, 0, 68, 61
2, 2888, Control_c, 0, 64, 88
2, 2891, Control_c, 0, 64, 0
2, 2913, Control_c, 0, 64, 24
2, 2915, Control_c, 0, 64, 72
2, 2917, Control_c, 0, 64, 127
2, 2920, Note_on_c, 0, 61, 29
2, 2960, Note_on_c, 0, 61, 0
2, 2960, Note_on_c, 0, 64, 30
2, 3000, Note_on_c, 0, 64, 0
2, 3040, Note_on_c, 0, 61, 23
2, 3080, Note_on_c, 0, 61, 0
2, 3080, Note_on_c, 0, 64, 32
2, 3119, Note_on_c, 0, 68, 0
2, 3120, Note_on_c, 0, 64, 0
2, 3120, Note_on_c, 0, 69, 54
2, 3120, Note_on_c, 0, 57, 38
2, 3128, Control_c, 0, 64, 56
2, 3131, Control_c, 0, 64, 0
2, 3150, Control_c, 0, 64, 104
2, 3151, Control_c, 0, 64, 127
2, 3160, Note_on_c, 0, 61, 26
2, 3161, Note_on_c, 0, 57, 0
2, 3200, Note_on_c, 0, 61, 0
2, 3200, Note_on_c, 0, 66, 32
2, 3240, Note_on_c, 0, 66, 0
2, 3240, Note_on_c, 0, 57, 26
2, 3280, Note_on_c, 0, 57, 0
2, 3280, Note_on_c, 0, 61, 27
2, 3320, Note_on_c, 0, 61, 0
2, 3320, Note_on_c, 0, 66, 33
2, 3358, Control_c, 0, 64, 88
2, 3359, Note_on_c, 0, 69, 0
2, 3360, Note_on_c, 0, 66, 0
2, 3360, Note_on_c, 0, 68, 51
2, 3361, Control_c, 0, 64, 0
2, 3375, Control_c, 0, 64, 24
2, 3377, Control_c, 0, 64, 72
2, 3378, Control_c, 0, 64, 127
2, 3400, Note_on_c, 0, 59, 51
2, 3440, Note_on_c, 0, 59, 0
2, 3440, Note_on_c, 0, 64, 40
2, 3480, Note_on_c, 0, 64, 0
2, 3520, Note_on_c, 0, 59, 24
2, 3560, Note_on_c, 0, 59, 0
2, 3560, Note_on_c, 0, 64, 34
2, 3596, Control_c, 0, 64, 56
2, 3598, Note_on_c, 0, 66, 53
2, 3598, Control_c, 0, 64, 0
2, 3599, Note_on_c, 0, 68, 0
2, 3600, Note_on_c, 0, 64, 0
2, 3600, Note_on_c, 0, 57, 38
2, 3615, Control_c, 0, 64, 72
2, 3617, Control_c, 0, 64, 127
2, 3640, Note_on_c, 0, 57, 0
2, 3640, Note_on_c, 0, 59, 29
2, 3649, Note_on_c, 0, 66, 0
2, 3680, Note_on_c, 0, 59, 0
2, 3680, Note_on_c, 0, 63, 18
2, 3710, Note_on_c, 0, 57, 40
2, 3719, Note_on_c, 0, 57, 0
2, 3720, Note_on_c, 0, 63, 0
2, 3720, Note_on_c, 0, 71, 48
2, 3760, Note_on_c, 0, 59, 34
2, 3800, Note_on_c, 0, 59, 0
2, 3800, Note_on_c, 0, 63, 40
2, 3839, Note_on_c, 0, 71, 0
2, 3840, Note_on_c, 0, 63, 0
2, 3840, Note_on_c, 0, 64, 51
2, 3845, Control_c, 0, 64, 56
2, 3846, Control_c, 0, 64, 0
2, 3863, Control_c, 0, 64, 56
2, 3865, Control_c, 0, 64, 127
2, 3880, Note_on_c, 0, 59, 35
2, 3920, Note_on_c, 0, 59, 0
2, 3920, Note_on_c, 0, 64, 25
2, 3959, Note_on_c, 0, 64, 0
2, 3960, Note_on_c, 0, 64, 0
2, 4000, Note_on_c, 0, 59, 24
2, 4040, Note_on_c, 0, 59, 0
2, 4040, Note_on_c, 0, 64, 30
2, 4080, Note_on_c, 0, 64, 0
2, 4120, Note_on_c, 0, 59, 24
2, 4160, Note_on_c, 0, 59, 0
2, 4160, Note_on_c, 0, 64, 36
2, 4200, Note_on_c, 0, 64, 0
2, 4240, Note_on_c, 0, 59, 26
2, 4280, Note_on_c, 0, 59, 0
2, 4280, Note_on_c, 0, 64, 28
2, 4320, Note_on_c, 0, 64, 0
2, 4322, Control_c, 0, 64, 88
2, 4325, Control_c, 0, 64, 24
2, 4327, Control_c, 0, 64, 0
2, 4348, Control_c, 0, 64, 72
2, 4351, Control_c, 0, 64, 127
2, 4360, Note_on_c, 0, 59, 35
2, 4400, Note_on_c, 0, 59, 0
2, 4400, Note_on_c, 0, 64, 30
2, 4440, Note_on_c, 0, 64, 0
2, 4480, Note_on_c, 0, 59, 22
2, 4520, Note_on_c, 0, 59, 0
2, 4520, Note_on_c, 0, 64, 27
2, 4560, Note_on_c, 0, 64, 0
2, 4600, Note_on_c, 0, 59, 24
2, 4640, Note_on_c, 0, 59, 0
2, 4640, Note_on_c, 0, 64, 25
2, 4680, Note_on_c, 0, 64, 0
2, 4680, Note_on_c, 0, 67, 58
2, 4720, Note_on_c, 0, 59, 33
2, 4760, Note_on_c, 0, 59, 0
2, 4760, Note_on_c, 0, 64, 41
2, 4770, Note_on_c, 0, 67, 0
2, 4770, Note_on_c, 0, 67, 37
2, 4800, Note_on_c, 0, 67, 0
2, 4800, Note_on_c, 0, 64, 0
2, 4800, Note_on_c, 0, 67, 48
2, 4807, Control_c, 0, 64, 88
2, 4808, Control_c, 0, 64, 0
2, 4835, Control_c, 0, 64, 72
2, 4837, Control_c, 0, 64, 127
2, 4840, Note_on_c, 0, 59, 36
2, 4880, Note_on_c, 0, 59, 0
2, 4880, Note_on_c, 0, 65, 41
2, 4920, Note_on_c, 0, 65, 0
2, 4960, Note_on_c, 0, 59, 25
2, 5000, Note_on_c, 0, 59, 0
2, 5000, Note_on_c, 0, 65, 30
2, 5040, Note_on_c, 0, 65, 0
2, 5080, Note_on_c, 0, 59, 24
2, 5120, Note_on_c, 0, 59, 0
2, 5120, Note_on_c, 0, 65, 34
2, 5159, Note_on_c, 0, 67, 0
2, 5160, Note_on_c, 0, 65, 0
2, 5160, Note_on_c, 0, 67, 55
2, 5200, Note_on_c, 0, 59, 35
2, 5240, Note_on_c, 0, 59, 0
2, 5240, Note_on_c, 0, 65, 42
2, 5250, Note_on_c, 0, 67, 0
2, 5250, Note_on_c, 0, 67, 56
2, 5280, Note_on_c, 0, 67, 0
2, 5280, Note_on_c, 0, 65, 0
2, 5280, Note_on_c, 0, 67, 53
2, 5286, Control_c, 0, 64, 56
2, 5288, Control_c, 0, 64, 0
2, 5311, Control_c, 0, 64, 88
2, 5313, Control_c, 0, 64, 127
2, 5320, Note_on_c, 0, 60, 37
2, 5360, Note_on_c, 0, 60, 0
2, 5360, Note_on_c, 0, 64, 36
2, 5400, Note_on_c, 0, 64, 0
2, 5406, Control_c, 0, 64, 56
2, 5407, Control_c, 0, 64, 0
2, 5426, Control_c, 0, 64, 40
2, 5427, Control_c, 0, 64, 127
2, 5440, Note_on_c, 0, 59, 36
2, 5480, Note_on_c, 0, 59, 0
2, 5480, Note_on_c, 0, 64, 29
2, 5520, Note_on_c, 0, 64, 0
2, 5522, Control_c, 0, 64, 56
2, 5525, Control_c, 0, 64, 0
2, 5541, Control_c, 0, 64, 40
2, 5542, Control_c, 0, 64, 104
2, 5545, Control_c, 0, 64, 127
2, 5560, Note_on_c, 0, 61, 38
2, 5600, Note_on_c, 0, 61, 0
2, 5600, Note_on_c, 0, 64, 36
2, 5639, Note_on_c, 0, 67, 0
2, 5640, Note_on_c, 0, 64, 0
2, 5640, Note_on_c, 0, 66, 60
2, 5680, Note_on_c, 0, 61, 43
2, 5720, Note_on_c, 0, 61, 0
2, 5720, Note_on_c, 0, 64, 36
2, 5759, Note_on_c, 0, 66, 0
2, 5760, Note_on_c, 0, 64, 0
2, 5760, Note_on_c, 0, 66, 43
2, 5767, Control_c, 0, 64, 104
2, 5768, Control_c, 0, 64, 24
2, 5771, Control_c, 0, 64, 0
2, 5791, Control_c, 0, 64, 40
2, 5793, Control_c, 0, 64, 104
2, 5795, Control_c, 0, 64, 127
2, 5800, Note_on_c, 0, 59, 27
2, 5840, Note_on_c, 0, 59, 0
2, 5840, Note_on_c, 0, 62, 25
2, 5880, Note_on_c, 0, 62, 0
2, 5920, Note_on_c, 0, 59, 37
2, 5960, Note_on_c, 0, 59, 0
2, 5960, Note_on_c, 0, 62, 33
2, 5999, Note_on_c, 0, 66, 0
2, 6000, Note_on_c, 0, 62, 0
2, 6000, Note_on_c, 0, 67, 58
2, 6005, Control_c, 0, 64, 56
2, 6006, Control_c, 0, 64, 0
2, 6025, Control_c, 0, 64, 88
2, 6027, Control_c, 0, 64, 127
2, 6040, Note_on_c, 0, 59, 42
2, 6080, Note_on_c, 0, 59, 0
2, 6080, Note_on_c, 0, 61, 47
2, 6119, Note_on_c, 0, 67, 0
2, 6120, Note_on_c, 0, 61, 0
2, 6120, Note_on_c, 0, 64, 54
2, 6123, Control_c, 0, 64, 24
2, 6126, Control_c, 0, 64, 0
2, 6133, Control_c, 0, 64, 24
2, 6136, Control_c, 0, 64, 72
2, 6137, Control_c, 0, 64, 127
2, 6160, Note_on_c, 0, 59, 43
2, 6200, Note_on_c, 0, 59, 0
2, 6200, Note_on_c, 0, 61, 54
2, 6239, Note_on_c, 0, 64, 0
2, 6240, Note_on_c, 0, 61, 0
2, 6240, Note_on_c, 0, 66, 54
2, 6241, Control_c, 0, 64, 104
2, 6242, Control_c, 0, 64, 0
2, 6265, Control_c, 0, 64, 40
2, 6267, Control_c, 0, 64, 104
2, 6268, Control_c, 0, 64, 127
2, 6280, Note_on_c, 0, 59, 31
2, 6320, Note_on_c, 0, 59, 0
2, 6320, Note_on_c, 0, 62, 37
2, 6360, Note_on_c, 0, 62, 0
2, 6400, Note_on_c, 0, 59, 27
2, 6440, Note_on_c, 0, 59, 0
2, 6440, Note_on_c, 0, 62, 37
2, 6479, Note_on_c, 0, 66, 0
2, 6480, Note_on_c, 0, 62, 0
2, 6480, Note_on_c, 0, 66, 48
2, 6481, Control_c, 0, 64, 104
2, 6482, Control_c, 0, 64, 24
2, 6485, Control_c, 0, 64, 0
2, 6508, Control_c, 0, 64, 56
2, 6511, Control_c, 0, 64, 127
2, 6520, Note_on_c, 0, 58, 30
2, 6560, Note_on_c, 0, 58, 0
2, 6560, Note_on_c, 0, 61, 37
2, 6600, Note_on_c, 0, 61, 0
2, 6640, Note_on_c, 0, 58, 32
2, 6680, Note_on_c, 0, 58, 0
2, 6680, Note_on_c, 0, 61, 30
2, 6720, Note_on_c, 0, 59, 30
2, 6721, Note_on_c, 0, 61, 0
2, 6721, Note_on_c, 0, 66, 0
2, 6725, Control_c, 0, 64, 88
2, 6726, Control_c, 0, 64, 0
2, 6747, Control_c, 0, 64, 56
2, 6748, Control_c, 0, 64, 127
2, 6760, Note_on_c, 0, 59, 0
2, 6760, Note_on_c, 0, 62, 24
2, 6800, Note_on_c, 0, 62, 0
2, 6800, Note_on_c, 0, 66, 31
2, 6840, Note_on_c, 0, 66, 0
2, 6840, Note_on_c, 0, 59, 48
2, 6880, Note_on_c, 0, 59, 0
2, 6880, Note_on_c, 0, 62, 39
2, 6920, Note_on_c, 0, 62, 0
2, 6920, Note_on_c, 0, 66, 40
2, 6960, Note_on_c, 0, 66, 0
2, 6960, Note_on_c, 0, 59, 46
2, 7000, Note_on_c, 0, 59, 0
2, 7000, Note_on_c, 0, 63, 49
2, 7040, Note_on_c, 0, 63, 0
2, 7040, Note_on_c, 0, 66, 49
2, 7077, Control_c, 0, 64, 104
2, 7080, Note_on_c, 0, 66, 0
2, 7080, Note_on_c, 0, 71, 66
2, 7080, Note_on_c, 0, 59, 56
2, 7080, Control_c, 0, 64, 0
2, 7096, Control_c, 0, 64, 72
2, 7097, Control_c, 0, 64, 127
2, 7120, Note_on_c, 0, 59, 0
2, 7120, Note_on_c, 0, 63, 34
2, 7160, Note_on_c, 0, 63, 0
2, 7160, Note_on_c, 0, 66, 40
2, 7190, Note_on_c, 0, 59, 49
2, 7199, Note_on_c, 0, 71, 0
2, 7200, Note_on_c, 0, 66, 0
2, 7200, Note_on_c, 0, 72, 82
2, 7205, Control_c, 0, 64, 24
2, 7206, Control_c, 0, 64, 0
2, 7221, Control_c, 0, 64, 72
2, 7222, Control_c, 0, 64, 127
2, 7239, Note_on_c, 0, 59, 0
2, 7240, Note_on_c, 0, 64, 52
2, 7280, Note_on_c, 0, 64, 0
2, 7280, Note_on_c, 0, 67, 33
2, 7317, Control_c, 0, 64, 40
2, 7320, Note_on_c, 0, 67, 0
2, 7320, Note_on_c, 0, 59, 42
2, 7320, Control_c, 0, 64, 0
2, 7327, Control_c, 0, 64, 24
2, 7328, Control_c, 0, 64, 72
2, 7331, Control_c, 0, 64, 127
2, 7358, Note_on_c, 0, 64, 40
2, 7398, Note_on_c, 0, 64, 0
2, 7400, Note_on_c, 0, 67, 24
2, 7414, Note_on_c, 0, 59, 0
2, 7438, Control_c, 0, 64, 72
2, 7440, Note_on_c, 0, 67, 0
2, 7440, Note_on_c, 0, 59, 57
2, 7440, Control_c, 0, 64, 0
2, 7446, Control_c, 0, 64, 56
2, 7448, Control_c, 0, 64, 88
2, 7450, Control_c, 0, 64, 127
2, 7480, Note_on_c, 0, 59, 0
2, 7480, Note_on_c, 0, 64, 41
2, 7520, Note_on_c, 0, 64, 0
2, 7520, Note_on_c, 0, 67, 55
2, 7559, Note_on_c, 0, 72, 0
2, 7560, Note_on_c, 0, 67, 0
2, 7560, Note_on_c, 0, 70, 54
2, 7560, Note_on_c, 0, 59, 47
2, 7560, Control_c, 0, 64, 40
2, 7563, Control_c, 0, 64, 0
2, 7571, Control_c, 0, 64, 56
2, 7573, Control_c, 0, 64, 104
2, 7576, Control_c, 0, 64, 127
2, 7600, Note_on_c, 0, 59, 0
2, 7600, Note_on_c, 0, 64, 31
2, 7640, Note_on_c, 0, 64, 0
2, 7640, Note_on_c, 0, 67, 34
2, 7679, Note_on_c, 0, 70, 0
2, 7680, Note_on_c, 0, 67, 0
2, 7680, Note_on_c, 0, 71, 44
2, 7680, Note_on_c, 0, 59, 24
2, 7682, Control_c, 0, 64, 56
2, 7685, Control_c, 0, 64, 0
2, 7702, Control_c, 0, 64, 56
2, 7705, Control_c, 0, 64, 127
2, 7720, Note_on_c, 0, 59, 0
2, 7720, Note_on_c, 0, 63, 32
2, 7760, Note_on_c, 0, 63, 0
2, 7760, Note_on_c, 0, 66, 30
2, 7800, Note_on_c, 0, 66, 0
2, 7800, Note_on_c, 0, 59, 30
2, 7840, Note_on_c, 0, 59, 0
2, 7840, Note_on_c, 0, 63, 25
2, 7880, Note_on_c, 0, 63, 0
2, 7880, Note_on_c, 0, 66, 30
2, 7920, Note_on_c, 0, 66, 0
2, 7920, Note_on_c, 0, 59, 19
2, 7960, Note_on_c, 0, 59, 0
2, 7960, Note_on_c, 0, 63, 34
2, 8000, Note_on_c, 0, 63, 0
2, 8000, Note_on_c, 0, 66, 36
2, 8038, Control_c, 0, 64, 40
2, 8039, Note_on_c, 0, 71, 0
2, 8040, Note_on_c, 0, 66, 0
2, 8040, Note_on_c, 0, 59, 44
2, 8040, Note_on_c, 0, 71, 62
2, 8041, Control_c, 0, 64, 0
2, 8050, Control_c, 0, 64, 40
2, 8051, Control_c, 0, 64, 88
2, 8053, Control_c, 0, 64, 127
2, 8080, Note_on_c, 0, 59, 0
2, 8080, Note_on_c, 0, 63, 34
2, 8120, Note_on_c, 0, 66, 33
2, 8128, Note_on_c, 0, 63, 0
2, 8143, Note_on_c, 0, 66, 0
2, 8150, Note_on_c, 0, 59, 34
2, 8159, Note_on_c, 0, 71, 0
2, 8160, Note_on_c, 0, 72, 76
2, 8168, Control_c, 0, 64, 88
2, 8170, Control_c, 0, 64, 24
2, 8172, Control_c, 0, 64, 0
2, 8176, Control_c, 0, 64, 40
2, 8178, Control_c, 0, 64, 72
2, 8180, Control_c, 0, 64, 127
2, 8200, Note_on_c, 0, 59, 0
2, 8200, Note_on_c, 0, 64, 26
2, 8240, Note_on_c, 0, 64, 0
2, 8240, Note_on_c, 0, 67, 28
2, 8278, Control_c, 0, 64, 88
2, 8280, Note_on_c, 0, 67, 0
2, 8280, Note_on_c, 0, 59, 37
2, 8281, Control_c, 0, 64, 24
2, 8283, Control_c, 0, 64, 0
2, 8290, Control_c, 0, 64, 40
2, 8291, Control_c, 0, 64, 88
2, 8293, Control_c, 0, 64, 127
2, 8320, Note_on_c, 0, 59, 0
2, 8320, Note_on_c, 0, 64, 31
2, 8360, Note_on_c, 0, 64, 0
2, 8360, Note_on_c, 0, 67, 36
2, 8396, Control_c, 0, 64, 88
2, 8398, Control_c, 0, 64, 24
2, 8400, Note_on_c, 0, 67, 0
2, 8400, Note_on_c, 0, 59, 62
2, 8400, Control_c, 0, 64, 0
2, 8405, Control_c, 0, 64, 24
2, 8406, Control_c, 0, 64, 56
2, 8408, Control_c, 0, 64, 104
2, 8410, Control_c, 0, 64, 127
2, 8440, Note_on_c, 0, 59, 0
2, 8440, Note_on_c, 0, 64, 36
2, 8480, Note_on_c, 0, 64, 0
2, 8480, Note_on_c, 0, 67, 39
2, 8519, Note_on_c, 0, 72, 0
2, 8520, Note_on_c, 0, 67, 0
2, 8520, Note_on_c, 0, 59, 47
2, 8520, Note_on_c, 0, 70, 58
2, 8520, Control_c, 0, 64, 56
2, 8521, Control_c, 0, 64, 0
2, 8525, Control_c, 0, 64, 24
2, 8527, Control_c, 0, 64, 56
2, 8528, Control_c, 0, 64, 88
2, 8531, Control_c, 0, 64, 127
2, 8560, Note_on_c, 0, 59, 0
2, 8560, Note_on_c, 0, 64, 25
2, 8600, Note_on_c, 0, 64, 0
2, 8600, Note_on_c, 0, 67, 22
2, 8639, Note_on_c, 0, 70, 0
2, 8640, Note_on_c, 0, 67, 0
2, 8640, Note_on_c, 0, 71, 47
2, 8640, Note_on_c, 0, 59, 33
2, 8642, Control_c, 0, 64, 56
2, 8645, Control_c, 0, 64, 0
2, 8662, Control_c, 0, 64, 72
2, 8665, Control_c, 0, 64, 127
2, 8680, Note_on_c, 0, 59, 0
2, 8680, Note_on_c, 0, 63, 27
2, 8720, Note_on_c, 0, 63, 0
2, 8720, Note_on_c, 0, 66, 27
2, 8760, Note_on_c, 0, 66, 0
2, 8760, Note_on_c, 0, 59, 28
2, 8800, Note_on_c, 0, 59, 0
2, 8800, Note_on_c, 0, 63, 31
2, 8840, Note_on_c, 0, 63, 0
2, 8840, Note_on_c, 0, 66, 34
2, 8876, Control_c, 0, 64, 56
2, 8878, Control_c, 0, 64, 0
2, 8879, Note_on_c, 0, 71, 0
2, 8880, Note_on_c, 0, 66, 0
2, 8880, Note_on_c, 0, 59, 28
2, 8880, Note_on_c, 0, 71, 41
2, 8892, Control_c, 0, 64, 40
2, 8895, Control_c, 0, 64, 104
2, 8896, Control_c, 0, 64, 127
2, 8920, Note_on_c, 0, 59, 0
2, 8920, Note_on_c, 0, 62, 22
2, 8960, Note_on_c, 0, 62, 0
2, 8960, Note_on_c, 0, 65, 33
2, 9000, Note_on_c, 0, 65, 0
2, 9000, Note_on_c, 0, 59, 29
2, 9040, Note_on_c, 0, 59, 0
2, 9040, Note_on_c, 0, 62, 31
2, 9080, Note_on_c, 0, 62, 0
2, 9080, Note_on_c, 0, 65, 32
2, 9119, Note_on_c, 0, 71, 0
2, 9120, Note_on_c, 0, 65, 0
2, 9120, Note_on_c, 0, 59, 31
2, 9120, Note_on_c, 0, 71, 45
2, 9120, Control_c, 0, 64, 24
2, 9122, Control_c, 0, 64, 0
2, 9136, Control_c, 0, 64, 72
2, 9138, Control_c, 0, 64, 127
2, 9160, Note_on_c, 0, 59, 0
2, 9160, Note_on_c, 0, 61, 29
2, 9200, Note_on_c, 0, 61, 0
2, 9200, Note_on_c, 0, 68, 32
2, 9240, Note_on_c, 0, 68, 0
2, 9240, Note_on_c, 0, 59, 25
2, 9280, Note_on_c, 0, 59, 0
2, 9280, Note_on_c, 0, 61, 29
2, 9320, Note_on_c, 0, 61, 0
2, 9320, Note_on_c, 0, 68, 25
2, 9359, Note_on_c, 0, 71, 0
2, 9360, Note_on_c, 0, 68, 0
2, 9360, Note_on_c, 0, 69, 60
2, 9360, Note_on_c, 0, 57, 26
2, 9360, Control_c, 0, 64, 72
2, 9362, Control_c, 0, 64, 0
2, 9382, Control_c, 0, 64, 72
2, 9385, Control_c, 0, 64, 127
2, 9400, Note_on_c, 0, 57, 0
2, 9400, Note_on_c, 0, 61, 25
2, 9440, Note_on_c, 0, 61, 0
2, 9440, Note_on_c, 0, 66, 31
2, 9480, Note_on_c, 0, 66, 0
2, 9480, Note_on_c, 0, 57, 36
2, 9520, Note_on_c, 0, 57, 0
2, 9520, Note_on_c, 0, 61, 23
2, 9560, Note_on_c, 0, 61, 0
2, 9560, Note_on_c, 0, 66, 38
2, 9599, Note_on_c, 0, 69, 0
2, 9600, Note_on_c, 0, 66, 0
2, 9600, Note_on_c, 0, 67, 67
2, 9602, Control_c, 0, 64, 72
2, 9605, Control_c, 0, 64, 0
2, 9622, Control_c, 0, 64, 56
2, 9625, Control_c, 0, 64, 127
2, 9640, Note_on_c, 0, 59, 31
2, 9680, Note_on_c, 0, 59, 0
2, 9680, Note_on_c, 0, 62, 42
2, 9720, Note_on_c, 0, 62, 0
2, 9760, Note_on_c, 0, 59, 36
2, 9800, Note_on_c, 0, 59, 0
2, 9800, Note_on_c, 0, 62, 58
2, 9837, Control_c, 0, 64, 24
2, 9839, Note_on_c, 0, 67, 0
2, 9840, Note_on_c, 0, 62, 0
2, 9840, Note_on_c, 0, 66, 62
2, 9840, Control_c, 0, 64, 0
2, 9856, Control_c, 0, 64, 56
2, 9858, Control_c, 0, 64, 127
2, 9880, Note_on_c, 0, 57, 34
2, 9920, Note_on_c, 0, 57, 0
2, 9920, Note_on_c, 0, 63, 55
2, 9960, Note_on_c, 0, 63, 0
2, 10000, Note_on_c, 0, 57, 24
2, 10040, Note_on_c, 0, 57, 0
2, 10040, Note_on_c, 0, 63, 37
2, 10079, Note_on_c, 0, 66, 0
2, 10080, Note_on_c, 0, 63, 0
2, 10080, Note_on_c, 0, 61, 32
2, 10082, Control_c, 0, 64, 88
2, 10083, Control_c, 0, 64, 0
2, 10102, Control_c, 0, 64, 56
2, 10105, Control_c, 0, 64, 127
2, 10160, Note_on_c, 0, 57, 36
2, 10200, Note_on_c, 0, 57, 0
2, 10280, Note_on_c, 0, 57, 38
2, 10319, Note_on_c, 0, 61, 0
2, 10320, Note_on_c, 0, 57, 0
2, 10320, Note_on_c, 0, 61, 46
2, 10320, Control_c, 0, 64, 88
2, 10322, Control_c, 0, 64, 0
2, 10338, Control_c, 0, 64, 40
2, 10340, Control_c, 0, 64, 127
2, 10437, Control_c, 0, 64, 104
2, 10438, Control_c, 0, 64, 40
2, 10439, Note_on_c, 0, 61, 0
2, 10440, Note_on_c, 0, 61, 34
2, 10441, Control_c, 0, 64, 0
2, 10447, Control_c, 0, 64, 24
2, 10448, Control_c, 0, 64, 56
2, 10451, Control_c, 0, 64, 104
2, 10452, Control_c, 0, 64, 127
2, 10557, Control_c, 0, 64, 88
2, 10559, Note_on_c, 0, 61, 0
2, 10560, Control_c, 0, 64, 0
2, 10582, Control_c, 0, 64, 127
2, 10600, Note_on_c, 0, 57, 25
2, 10640, Note_on_c, 0, 57, 0
2, 10640, Note_on_c, 0, 61, 40
2, 10680, Note_on_c, 0, 61, 0
2, 10680, Note_on_c, 0, 57, 49
2, 10720, Note_on_c, 0, 57, 0
2, 10720, Note_on_c, 0, 61, 27
2, 10760, Note_on_c, 0, 61, 0
2, 10760, Note_on_c, 0, 66, 39
2, 10800, Note_on_c, 0, 66, 0
2, 10800, Note_on_c, 0, 61, 46
2, 10840, Note_on_c, 0, 61, 0
2, 10840, Note_on_c, 0, 66, 28
2, 10880, Note_on_c, 0, 66, 0
2, 10880, Note_on_c, 0, 69, 39
2, 10920, Note_on_c, 0, 69, 0
2, 10920, Note_on_c, 0, 61, 64
2, 10920, Note_on_c, 0, 73, 71
2, 10960, Note_on_c, 0, 61, 0
2, 10960, Note_on_c, 0, 66, 32
2, 11000, Note_on_c, 0, 66, 0
2, 11000, Note_on_c, 0, 69, 29
2, 11010, Note_on_c, 0, 73, 0
2, 11010, Note_on_c, 0, 73, 54
2, 11040, Note_on_c, 0, 73, 0
2, 11040, Note_on_c, 0, 69, 0
2, 11040, Note_on_c, 0, 73, 61
2, 11040, Note_on_c, 0, 61, 34
2, 11055, Control_c, 0, 64, 24
2, 11058, Control_c, 0, 64, 0
2, 11078, Control_c, 0, 64, 88
2, 11080, Control_c, 0, 64, 127
2, 11080, Note_on_c, 0, 68, 35
2, 11081, Note_on_c, 0, 61, 0
2, 11120, Note_on_c, 0, 68, 0
2, 11120, Note_on_c, 0, 71, 37
2, 11160, Note_on_c, 0, 71, 0
2, 11160, Note_on_c, 0, 61, 35
2, 11200, Note_on_c, 0, 61, 0
2, 11200, Note_on_c, 0, 68, 26
2, 11240, Note_on_c, 0, 68, 0
2, 11240, Note_on_c, 0, 71, 31
2, 11279, Note_on_c, 0, 73, 0
2, 11280, Note_on_c, 0, 71, 0
2, 11280, Note_on_c, 0, 61, 34
2, 11320, Note_on_c, 0, 61, 0
2, 11320, Note_on_c, 0, 68, 32
2, 11360, Note_on_c, 0, 68, 0
2, 11360, Note_on_c, 0, 71, 24
2, 11400, Note_on_c, 0, 71, 0
2, 11400, Note_on_c, 0, 73, 57
2, 11400, Note_on_c, 0, 61, 32
2, 11440, Note_on_c, 0, 61, 0
2, 11440, Note_on_c, 0, 68, 31
2, 11480, Note_on_c, 0, 68, 0
2, 11480, Note_on_c, 0, 71, 34
2, 11490, Note_on_c, 0, 73, 0
2, 11490, Note_on_c, 0, 73, 46
2, 11520, Note_on_c, 0, 73, 0
2, 11520, Note_on_c, 0, 71, 0
2, 11520, Note_on_c, 0, 73, 61
2, 11520, Note_on_c, 0, 61, 31
2, 11530, Control_c, 0, 64, 40
2, 11532, Control_c, 0, 64, 0
2, 11550, Control_c, 0, 64, 56
2, 11551, Control_c, 0, 64, 127
2, 11560, Note_on_c, 0, 61, 0
2, 11560, Note_on_c, 0, 66, 34
2, 11600, Note_on_c, 0, 66, 0
2, 11600, Note_on_c, 0, 69, 40
2, 11640, Note_on_c, 0, 69, 0
2, 11640, Note_on_c, 0, 61, 46
2, 11680, Note_on_c, 0, 66, 32
2, 11720, Note_on_c, 0, 66, 0
2, 11720, Note_on_c, 0, 69, 34
2, 11757, Control_c, 0, 64, 56
2, 11759, Note_on_c, 0, 61, 0
2, 11759, Note_on_c, 0, 73, 0
2, 11760, Note_on_c, 0, 69, 0
2, 11760, Note_on_c, 0, 60, 63
2, 11760, Note_on_c, 0, 72, 68
2, 11760, Control_c, 0, 64, 0
2, 11776, Control_c, 0, 64, 72
2, 11778, Control_c, 0, 64, 127
2, 11800, Note_on_c, 0, 60, 0
2, 11800, Note_on_c, 0, 66, 33
2, 11840, Note_on_c, 0, 66, 0
2, 11840, Note_on_c, 0, 69, 40
2, 11872, Control_c, 0, 64, 72
2, 11875, Control_c, 0, 64, 0
2, 11879, Note_on_c, 0, 72, 0
2, 11880, Note_on_c, 0, 69, 0
2, 11880, Note_on_c, 0, 73, 81
2, 11880, Note_on_c, 0, 61, 69
2, 11888, Control_c, 0, 64, 72
2, 11891, Control_c, 0, 64, 127
2, 11920, Note_on_c, 0, 61, 0
2, 11920, Note_on_c, 0, 66, 37
2, 11960, Note_on_c, 0, 66, 0
2, 11960, Note_on_c, 0, 69, 37
2, 11993, Control_c, 0, 64, 40
2, 11996, Control_c, 0, 64, 0
2, 11999, Note_on_c, 0, 73, 0
2, 12000, Note_on_c, 0, 69, 0
2, 12000, Note_on_c, 0, 63, 64
2, 12000, Note_on_c, 0, 75, 78
2, 12012, Control_c, 0, 64, 40
2, 12013, Control_c, 0, 64, 127
2, 12040, Note_on_c, 0, 63, 0
2, 12040, Note_on_c, 0, 66, 35
2, 12080, Note_on_c, 0, 66, 0
2, 12080, Note_on_c, 0, 68, 36
2, 12120, Note_on_c, 0, 68, 0
2, 12120, Note_on_c, 0, 63, 52
2, 12160, Note_on_c, 0, 63, 0
2, 12160, Note_on_c, 0, 66, 25
2, 12200, Note_on_c, 0, 66, 0
2, 12200, Note_on_c, 0, 68, 46
2, 12240, Note_on_c, 0, 68, 0
2, 12240, Note_on_c, 0, 63, 43
2, 12280, Note_on_c, 0, 63, 0
2, 12280, Note_on_c, 0, 66, 33
2, 12320, Note_on_c, 0, 66, 0
2, 12320, Note_on_c, 0, 68, 34
2, 12359, Note_on_c, 0, 75, 0
2, 12360, Note_on_c, 0, 68, 0
2, 12360, Note_on_c, 0, 75, 71
2, 12360, Note_on_c, 0, 63, 69
2, 12363, Control_c, 0, 64, 0
2, 12381, Control_c, 0, 64, 104
2, 12383, Control_c, 0, 64, 127
2, 12400, Note_on_c, 0, 63, 0
2, 12400, Note_on_c, 0, 66, 34
2, 12440, Note_on_c, 0, 66, 0
2, 12440, Note_on_c, 0, 68, 36
2, 12479, Note_on_c, 0, 75, 0
2, 12480, Note_on_c, 0, 68, 0
2, 12480, Note_on_c, 0, 76, 71
2, 12480, Note_on_c, 0, 64, 56
2, 12483, Control_c, 0, 64, 40
2, 12486, Control_c, 0, 64, 0
2, 12502, Control_c, 0, 64, 40
2, 12503, Control_c, 0, 64, 127
2, 12520, Note_on_c, 0, 64, 0
2, 12520, Note_on_c, 0, 68, 36
2, 12560, Note_on_c, 0, 68, 0
2, 12560, Note_on_c, 0, 73, 37
2, 12600, Note_on_c, 0, 73, 0
2, 12600, Note_on_c, 0, 64, 30
2, 12640, Note_on_c, 0, 64, 0
2, 12640, Note_on_c, 0, 68, 25
2, 12680, Note_on_c, 0, 68, 0
2, 12680, Note_on_c, 0, 73, 32
2, 12716, Control_c, 0, 64, 104
2, 12717, Control_c, 0, 64, 0
2, 12720, Note_on_c, 0, 73, 0
2, 12720, Note_on_c, 0, 75, 56
2, 12720, Note_on_c, 0, 63, 45
2, 12733, Control_c, 0, 64, 72
2, 12736, Control_c, 0, 64, 127
2, 12760, Note_on_c, 0, 63, 0
2, 12760, Note_on_c, 0, 66, 44
2, 12800, Note_on_c, 0, 66, 0
2, 12800, Note_on_c, 0, 69, 46
2, 12838, Control_c, 0, 64, 24
2, 12839, Note_on_c, 0, 75, 0
2, 12839, Note_on_c, 0, 76, 0
2, 12840, Note_on_c, 0, 69, 0
2, 12840, Note_on_c, 0, 73, 71
2, 12840, Note_on_c, 0, 61, 38
2, 12841, Control_c, 0, 64, 0
2, 12855, Control_c, 0, 64, 72
2, 12857, Control_c, 0, 64, 127
2, 12880, Note_on_c, 0, 61, 0
2, 12880, Note_on_c, 0, 64, 56
2, 12920, Note_on_c, 0, 64, 0
2, 12920, Note_on_c, 0, 70, 51
2, 12957, Control_c, 0, 64, 72
2, 12959, Note_on_c, 0, 73, 0
2, 12960, Note_on_c, 0, 70, 0
2, 12960, Note_on_c, 0, 72, 41
2, 12960, Control_c, 0, 64, 0
2, 12977, Control_c, 0, 64, 88
2, 12980, Control_c, 0, 64, 127
2, 13000, Note_on_c, 0, 60, 24
2, 13040, Note_on_c, 0, 60, 0
2, 13040, Note_on_c, 0, 63, 33
2, 13079, Note_on_c, 0, 72, 0
2, 13080, Note_on_c, 0, 63, 0
2, 13080, Note_on_c, 0, 68, 58
2, 13120, Note_on_c, 0, 60, 33
2, 13160, Note_on_c, 0, 60, 0
2, 13160, Note_on_c, 0, 63, 47
2, 13199, Note_on_c, 0, 68, 0
2, 13200, Note_on_c, 0, 63, 0
2, 13200, Note_on_c, 0, 69, 66
2, 13238, Note_on_c, 0, 60, 29
2, 13278, Note_on_c, 0, 60, 0
2, 13280, Note_on_c, 0, 63, 31
2, 13319, Note_on_c, 0, 69, 0
2, 13320, Note_on_c, 0, 63, 0
2, 13320, Note_on_c, 0, 66, 43
2, 13358, Note_on_c, 0, 60, 29
2, 13398, Note_on_c, 0, 60, 0
2, 13400, Note_on_c, 0, 63, 37
2, 13439, Note_on_c, 0, 66, 0
2, 13440, Note_on_c, 0, 63, 0
2, 13440, Control_c, 0, 64, 24
2, 13441, Control_c, 0, 64, 0
2, 13457, Control_c, 0, 64, 56
2, 13460, Control_c, 0, 64, 127
2, 13677, Control_c, 0, 64, 104
2, 13680, Note_on_c, 0, 57, 74
2, 13680, Control_c, 0, 64, 0
2, 13690, Control_c, 0, 64, 40
2, 13692, Control_c, 0, 64, 88
2, 13693, Control_c, 0, 64, 127
2, 13799, Note_on_c, 0, 57, 0
2, 13907, Control_c, 0, 64, 56
2, 13910, Control_c, 0, 64, 0
2, 13921, Control_c, 0, 64, 56
2, 13923, Control_c, 0, 64, 127
2, 13960, Note_on_c, 0, 64, 40
2, 13998, Note_on_c, 0, 68, 27
2, 14000, Note_on_c, 0, 64, 0
2, 14038, Note_on_c, 0, 68, 0
2, 14040, Note_on_c, 0, 73, 64
2, 14080, Note_on_c, 0, 64, 31
2, 14120, Note_on_c, 0, 64, 0
2, 14120, Note_on_c, 0, 68, 27
2, 14159, Note_on_c, 0, 73, 0
2, 14160, Note_on_c, 0, 68, 0
2, 14160, Note_on_c, 0, 76, 70
2, 14200, Note_on_c, 0, 64, 25
2, 14240, Note_on_c, 0, 64, 0
2, 14240, Note_on_c, 0, 68, 29
2, 14279, Note_on_c, 0, 76, 0
2, 14280, Note_on_c, 0, 68, 0
2, 14280, Note_on_c, 0, 73, 51
2, 14318, Note_on_c, 0, 64, 28
2, 14358, Note_on_c, 0, 64, 0
2, 14360, Note_on_c, 0, 68, 30
2, 14396, Control_c, 0, 64, 104
2, 14397, Control_c, 0, 64, 0
2, 14399, Note_on_c, 0, 73, 0
2, 14400, Note_on_c, 0, 68, 0
2, 14416, Control_c, 0, 64, 40
2, 14417, Control_c, 0, 64, 127
2, 14520, Note_on_c, 0, 61, 59
2, 14639, Note_on_c, 0, 61, 0
2, 14640, Note_on_c, 0, 64, 68
2, 14759, Note_on_c, 0, 64, 0
2, 14760, Note_on_c, 0, 61, 47
2, 14877, Control_c, 0, 64, 88
2, 14879, Note_on_c, 0, 61, 0
2, 14880, Control_c, 0, 64, 0
2, 14900, Control_c, 0, 64, 56
2, 14901, Control_c, 0, 64, 127
2, 14920, Note_on_c, 0, 57, 31
2, 14960, Note_on_c, 0, 57, 0
2, 15000, Note_on_c, 0, 60, 51
2, 15040, Note_on_c, 0, 60, 0
2, 15040, Note_on_c, 0, 57, 44
2, 15080, Note_on_c, 0, 57, 0
2, 15080, Note_on_c, 0, 63, 58
2, 15120, Note_on_c, 0, 63, 0
2, 15120, Note_on_c, 0, 60, 57
2, 15160, Note_on_c, 0, 60, 0
2, 15160, Note_on_c, 0, 66, 50
2, 15200, Note_on_c, 0, 66, 0
2, 15200, Note_on_c, 0, 63, 48
2, 15240, Note_on_c, 0, 63, 0
2, 15240, Note_on_c, 0, 69, 56
2, 15280, Note_on_c, 0, 69, 0
2, 15280, Note_on_c, 0, 66, 50
2, 15320, Note_on_c, 0, 66, 0
2, 15320, Note_on_c, 0, 72, 57
2, 15360, Note_on_c, 0, 72, 0
2, 15361, Control_c, 0, 64, 0
2, 15380, Control_c, 0, 64, 40
2, 15381, Control_c, 0, 64, 127
2, 15400, Note_on_c, 0, 61, 34
2, 15440, Note_on_c, 0, 61, 0
2, 15480, Note_on_c, 0, 64, 56
2, 15520, Note_on_c, 0, 64, 0
2, 15520, Note_on_c, 0, 61, 39
2, 15560, Note_on_c, 0, 61, 0
2, 15560, Note_on_c, 0, 68, 62
2, 15600, Note_on_c, 0, 68, 0
2, 15600, Note_on_c, 0, 64, 46
2, 15640, Note_on_c, 0, 64, 0
2, 15640, Note_on_c, 0, 73, 63
2, 15680, Note_on_c, 0, 73, 0
2, 15680, Note_on_c, 0, 68, 46
2, 15720, Note_on_c, 0, 68, 0
2, 15720, Note_on_c, 0, 76, 57
2, 15760, Note_on_c, 0, 76, 0
2, 15760, Note_on_c, 0, 73, 26
2, 15800, Note_on_c, 0, 73, 0
2, 15800, Note_on_c, 0, 68, 33
2, 15840, Note_on_c, 0, 68, 0
2, 15840, Note_on_c, 0, 61, 45
2, 15840, Control_c, 0, 64, 24
2, 15841, Control_c, 0, 64, 0
2, 15861, Control_c, 0, 64, 40
2, 15863, Control_c, 0, 64, 127
2, 15880, Note_on_c, 0, 61, 0
2, 15880, Note_on_c, 0, 67, 52
2, 15920, Note_on_c, 0, 67, 0
2, 15920, Note_on_c, 0, 64, 53
2, 15960, Note_on_c, 0, 64, 0
2, 15960, Note_on_c, 0, 70, 56
2, 16000, Note_on_c, 0, 70, 0
2, 16000, Note_on_c, 0, 67, 35
2, 16040, Note_on_c, 0, 67, 0
2, 16040, Note_on_c, 0, 73, 56
2, 16080, Note_on_c, 0, 73, 0
2, 16080, Note_on_c, 0, 70, 44
2, 16120, Note_on_c, 0, 70, 0
2, 16120, Note_on_c, 0, 76, 66
2, 16160, Note_on_c, 0, 76, 0
2, 16160, Note_on_c, 0, 73, 42
2, 16200, Note_on_c, 0, 73, 0
2, 16200, Note_on_c, 0, 79, 63
2, 16240, Note_on_c, 0, 79, 0
2, 16240, Note_on_c, 0, 76, 40
2, 16280, Note_on_c, 0, 76, 0
2, 16280, Note_on_c, 0, 82, 33
2, 16320, Note_on_c, 0, 82, 0
2, 16320, Note_on_c, 0, 66, 29
2, 16323, Control_c, 0, 64, 56
2, 16327, Control_c, 0, 64, 0
2, 16345, Control_c, 0, 64, 56
2, 16347, Control_c, 0, 64, 127
2, 16360, Note_on_c, 0, 66, 0
2, 16360, Note_on_c, 0, 72, 41
2, 16400, Note_on_c, 0, 72, 0
2, 16400, Note_on_c, 0, 69, 45
2, 16440, Note_on_c, 0, 69, 0
2, 16440, Note_on_c, 0, 75, 54
2, 16480, Note_on_c, 0, 75, 0
2, 16480, Note_on_c, 0, 72, 33
2, 16520, Note_on_c, 0, 72, 0
2, 16520, Note_on_c, 0, 78, 48
2, 16560, Note_on_c, 0, 78, 0
2, 16560, Note_on_c, 0, 75, 48
2, 16600, Note_on_c, 0, 75, 0
2, 16600, Note_on_c, 0, 81, 43
2, 16640, Note_on_c, 0, 81, 0
2, 16640, Note_on_c, 0, 78, 45
2, 16680, Note_on_c, 0, 78, 0
2, 16680, Note_on_c, 0, 84, 68
2, 16720, Note_on_c, 0, 84, 0
2, 16720, Note_on_c, 0, 81, 40
2, 16760, Note_on_c, 0, 81, 0
2, 16760, Note_on_c, 0, 87, 48
2, 16800, Note_on_c, 0, 87, 0
2, 16800, Note_on_c, 0, 84, 57
2, 16840, Note_on_c, 0, 84, 0
2, 16840, Note_on_c, 0, 78, 32
2, 16880, Note_on_c, 0, 78, 0
2, 16880, Note_on_c, 0, 81, 28
2, 16920, Note_on_c, 0, 81, 0
2, 16920, Note_on_c, 0, 75, 47
2, 16960, Note_on_c, 0, 75, 0
2, 16960, Note_on_c, 0, 78, 39
2, 17000, Note_on_c, 0, 78, 0
2, 17000, Note_on_c, 0, 72, 36
2, 17040, Note_on_c, 0, 72, 0
2, 17040, Note_on_c, 0, 75, 55
2, 17080, Note_on_c, 0, 75, 0
2, 17080, Note_on_c, 0, 69, 34
2, 17120, Note_on_c, 0, 69, 0
2, 17120, Note_on_c, 0, 72, 33
2, 17160, Note_on_c, 0, 72, 0
2, 17160, Note_on_c, 0, 66, 44
2, 17200, Note_on_c, 0, 66, 0
2, 17200, Note_on_c, 0, 69, 26
2, 17240, Note_on_c, 0, 69, 0
2, 17240, Note_on_c, 0, 63, 31
2, 17280, Note_on_c, 0, 63, 0
2, 17280, Note_on_c, 0, 66, 49
2, 17320, Note_on_c, 0, 66, 0
2, 17320, Note_on_c, 0, 60, 39
2, 17360, Note_on_c, 0, 60, 0
2, 17360, Note_on_c, 0, 63, 25
2, 17400, Note_on_c, 0, 63, 0
2, 17400, Note_on_c, 0, 57, 48
2, 17402, Control_c, 0, 64, 104
2, 17403, Control_c, 0, 64, 40
2, 17406, Control_c, 0, 64, 0
2, 17413, Control_c, 0, 64, 56
2, 17416, Control_c, 0, 64, 104
2, 17418, Control_c, 0, 64, 127
2, 17440, Note_on_c, 0, 57, 0
2, 17440, Note_on_c, 0, 60, 33
2, 17480, Note_on_c, 0, 60, 0
2, 17520, Note_on_c, 0, 57, 30
2, 17560, Note_on_c, 0, 57, 0
2, 17636, Control_c, 0, 64, 40
2, 17637, Control_c, 0, 64, 0
2, 17652, Control_c, 0, 64, 127
2, 17720, Note_on_c, 0, 57, 35
2, 17760, Note_on_c, 0, 57, 0
2, 17761, Control_c, 0, 64, 104
2, 17762, Control_c, 0, 64, 0
2, 17781, Control_c, 0, 64, 56
2, 17783, Control_c, 0, 64, 127
2, 17880, Note_on_c, 0, 57, 62
2, 17920, Note_on_c, 0, 57, 0
2, 17998, Control_c, 0, 64, 56
2, 18001, Control_c, 0, 64, 0
2, 18017, Control_c, 0, 64, 56
2, 18018, Control_c, 0, 64, 127
2, 18080, Note_on_c, 0, 57, 40
2, 18117, Control_c, 0, 64, 0
2, 18120, Note_on_c, 0, 57, 0
2, 18132, Control_c, 0, 64, 40
2, 18133, Control_c, 0, 64, 104
2, 18136, Control_c, 0, 64, 127
2, 18200, Note_on_c, 0, 57, 32
2, 18238, Control_c, 0, 64, 0
2, 18240, Note_on_c, 0, 57, 0
2, 18258, Control_c, 0, 64, 104
2, 18261, Control_c, 0, 64, 127
2, 18360, Note_on_c, 0, 57, 82
2, 18400, Note_on_c, 0, 57, 0
2, 18477, Control_c, 0, 64, 56
2, 18478, Control_c, 0, 64, 0
2, 18495, Control_c, 0, 64, 88
2, 18497, Control_c, 0, 64, 127
2, 18560, Note_on_c, 0, 57, 36
2, 18593, Control_c, 0, 64, 40
2, 18596, Control_c, 0, 64, 0
2, 18600, Note_on_c, 0, 57, 0
2, 18601, Control_c, 0, 64, 40
2, 18603, Control_c, 0, 64, 72
2, 18606, Control_c, 0, 64, 127
2, 18680, Note_on_c, 0, 57, 41
2, 18715, Control_c, 0, 64, 104
2, 18717, Control_c, 0, 64, 0
2, 18720, Note_on_c, 0, 57, 0
2, 18737, Control_c, 0, 64, 72
2, 18738, Control_c, 0, 64, 127
2, 18840, Note_on_c, 0, 57, 54
2, 18880, Note_on_c, 0, 57, 0
2, 18952, Control_c, 0, 64, 24
2, 18955, Control_c, 0, 64, 0
2, 18972, Control_c, 0, 64, 24
2, 18975, Control_c, 0, 64, 72
2, 18977, Control_c, 0, 64, 127
2, 19040, Note_on_c, 0, 61, 44
2, 19080, Note_on_c, 0, 61, 0
2, 19160, Note_on_c, 0, 61, 37
2, 19195, Control_c, 0, 64, 88
2, 19196, Control_c, 0, 64, 0
2, 19200, Note_on_c, 0, 61, 0
2, 19215, Control_c, 0, 64, 56
2, 19217, Control_c, 0, 64, 127
2, 19240, Note_on_c, 0, 57, 36
2, 19280, Note_on_c, 0, 57, 0
2, 19280, Note_on_c, 0, 61, 43
2, 19320, Note_on_c, 0, 61, 0
2, 19358, Note_on_c, 0, 57, 28
2, 19398, Note_on_c, 0, 57, 0
2, 19400, Note_on_c, 0, 61, 25
2, 19438, Control_c, 0, 64, 104
2, 19440, Note_on_c, 0, 61, 0
2, 19441, Control_c, 0, 64, 0
2, 19461, Control_c, 0, 64, 88
2, 19462, Control_c, 0, 64, 127
2, 19520, Note_on_c, 0, 60, 34
2, 19560, Note_on_c, 0, 60, 0
2, 19640, Note_on_c, 0, 60, 33
2, 19680, Note_on_c, 0, 60, 0
2, 19681, Control_c, 0, 64, 0
2, 19701, Control_c, 0, 64, 40
2, 19702, Control_c, 0, 64, 127
2, 19760, Note_on_c, 0, 61, 25
2, 19800, Note_on_c, 0, 61, 0
2, 19840, Note_on_c, 0, 61, 33
2, 19880, Note_on_c, 0, 61, 0
2, 19880, Note_on_c, 0, 64, 26
2, 19920, Note_on_c, 0, 64, 0
2, 19960, Note_on_c, 0, 61, 32
2, 20000, Note_on_c, 0, 61, 0
2, 20000, Note_on_c, 0, 64, 27
2, 20040, Note_on_c, 0, 64, 0
2, 20040, Note_on_c, 0, 68, 44
2, 20080, Note_on_c, 0, 61, 29
2, 20120, Note_on_c, 0, 61, 0
2, 20120, Note_on_c, 0, 64, 27
2, 20128, Note_on_c, 0, 68, 60
2, 20130, Note_on_c, 0, 68, 0
2, 20158, Note_on_c, 0, 68, 0
2, 20160, Note_on_c, 0, 64, 0
2, 20160, Note_on_c, 0, 68, 58
2, 20165, Control_c, 0, 64, 88
2, 20166, Control_c, 0, 64, 0
2, 20191, Control_c, 0, 64, 56
2, 20192, Control_c, 0, 64, 127
2, 20200, Note_on_c, 0, 63, 35
2, 20240, Note_on_c, 0, 63, 0
2, 20240, Note_on_c, 0, 66, 35
2, 20280, Note_on_c, 0, 66, 0
2, 20320, Note_on_c, 0, 63, 23
2, 20360, Note_on_c, 0, 63, 0
2, 20360, Note_on_c, 0, 66, 30
2, 20400, Note_on_c, 0, 66, 0
2, 20440, Note_on_c, 0, 63, 17
2, 20480, Note_on_c, 0, 63, 0
2, 20480, Note_on_c, 0, 66, 40
2, 20519, Note_on_c, 0, 68, 0
2, 20520, Note_on_c, 0, 66, 0
2, 20520, Note_on_c, 0, 68, 53
2, 20560, Note_on_c, 0, 63, 32
2, 20600, Note_on_c, 0, 63, 0
2, 20600, Note_on_c, 0, 66, 38
2, 20610, Note_on_c, 0, 68, 0
2, 20610, Note_on_c, 0, 68, 49
2, 20640, Note_on_c, 0, 68, 0
2, 20640, Note_on_c, 0, 66, 0
2, 20640, Note_on_c, 0, 68, 54
2, 20646, Control_c, 0, 64, 104
2, 20648, Control_c, 0, 64, 0
2, 20671, Control_c, 0, 64, 127
2, 20680, Note_on_c, 0, 61, 30
2, 20720, Note_on_c, 0, 61, 0
2, 20720, Note_on_c, 0, 64, 37
2, 20760, Note_on_c, 0, 64, 0
2, 20800, Note_on_c, 0, 61, 26
2, 20840, Note_on_c, 0, 61, 0
2, 20840, Note_on_c, 0, 64, 46
2, 20879, Note_on_c, 0, 68, 0
2, 20880, Note_on_c, 0, 64, 0
2, 20880, Note_on_c, 0, 69, 59
2, 20880, Note_on_c, 0, 57, 39
2, 20880, Control_c, 0, 64, 104
2, 20882, Control_c, 0, 64, 0
2, 20902, Control_c, 0, 64, 127
2, 20920, Note_on_c, 0, 57, 0
2, 20920, Note_on_c, 0, 61, 37
2, 20960, Note_on_c, 0, 61, 0
2, 20960, Note_on_c, 0, 66, 35
2, 21000, Note_on_c, 0, 66, 0
2, 21000, Note_on_c, 0, 57, 31
2, 21040, Note_on_c, 0, 57, 0
2, 21040, Note_on_c, 0, 61, 29
2, 21080, Note_on_c, 0, 61, 0
2, 21080, Note_on_c, 0, 66, 33
2, 21118, Control_c, 0, 64, 40
2, 21119, Note_on_c, 0, 69, 0
2, 21120, Note_on_c, 0, 66, 0
2, 21120, Note_on_c, 0, 68, 54
2, 21120, Control_c, 0, 64, 0
2, 21136, Control_c, 0, 64, 72
2, 21138, Control_c, 0, 64, 127
2, 21160, Note_on_c, 0, 59, 42
2, 21200, Note_on_c, 0, 59, 0
2, 21200, Note_on_c, 0, 64, 44
2, 21240, Note_on_c, 0, 64, 0
2, 21280, Note_on_c, 0, 59, 38
2, 21320, Note_on_c, 0, 59, 0
2, 21320, Note_on_c, 0, 64, 38
2, 21356, Control_c, 0, 64, 0
2, 21359, Note_on_c, 0, 68, 0
2, 21360, Note_on_c, 0, 64, 0
2, 21360, Note_on_c, 0, 57, 48
2, 21360, Note_on_c, 0, 66, 61
2, 21375, Control_c, 0, 64, 72
2, 21376, Control_c, 0, 64, 127
2, 21400, Note_on_c, 0, 57, 0
2, 21400, Note_on_c, 0, 59, 32
2, 21440, Note_on_c, 0, 59, 0
2, 21440, Note_on_c, 0, 63, 30
2, 21471, Note_on_c, 0, 57, 35
2, 21479, Note_on_c, 0, 66, 0
2, 21480, Note_on_c, 0, 63, 0
2, 21480, Note_on_c, 0, 71, 56
2, 21520, Note_on_c, 0, 57, 0
2, 21520, Note_on_c, 0, 59, 26
2, 21560, Note_on_c, 0, 59, 0
2, 21560, Note_on_c, 0, 63, 50
2, 21599, Note_on_c, 0, 71, 0
2, 21600, Note_on_c, 0, 63, 0
2, 21600, Note_on_c, 0, 64, 40
2, 21608, Control_c, 0, 64, 40
2, 21610, Control_c, 0, 64, 0
2, 21628, Control_c, 0, 64, 56
2, 21631, Control_c, 0, 64, 127
2, 21640, Note_on_c, 0, 59, 52
2, 21680, Note_on_c, 0, 59, 0
2, 21680, Note_on_c, 0, 64, 0
2, 21680, Note_on_c, 0, 64, 42
2, 21720, Note_on_c, 0, 64, 0
2, 21720, Note_on_c, 0, 59, 52
2, 21760, Note_on_c, 0, 59, 0
2, 21760, Note_on_c, 0, 64, 35
2, 21800, Note_on_c, 0, 64, 0
2, 21800, Note_on_c, 0, 68, 35
2, 21840, Note_on_c, 0, 68, 0
2, 21840, Note_on_c, 0, 59, 52
2, 21880, Note_on_c, 0, 59, 0
2, 21880, Note_on_c, 0, 64, 32
2, 21920, Note_on_c, 0, 64, 0
2, 21920, Note_on_c, 0, 68, 32
2, 21960, Note_on_c, 0, 68, 0
2, 21960, Note_on_c, 0, 71, 63
2, 21960, Note_on_c, 0, 59, 53
2, 22000, Note_on_c, 0, 59, 0
2, 22000, Note_on_c, 0, 64, 34
2, 22040, Note_on_c, 0, 64, 0
2, 22040, Note_on_c, 0, 68, 39
2, 22050, Note_on_c, 0, 71, 0
2, 22050, Note_on_c, 0, 71, 36
2, 22080, Note_on_c, 0, 71, 0
2, 22080, Note_on_c, 0, 68, 0
2, 22080, Note_on_c, 0, 71, 57
2, 22080, Note_on_c, 0, 59, 40
2, 22082, Control_c, 0, 64, 72
2, 22083, Control_c, 0, 64, 0
2, 22105, Control_c, 0, 64, 88
2, 22106, Control_c, 0, 64, 127
2, 22120, Note_on_c, 0, 59, 0
2, 22120, Note_on_c, 0, 66, 27
2, 22160, Note_on_c, 0, 66, 0
2, 22160, Note_on_c, 0, 69, 21
2, 22200, Note_on_c, 0, 69, 0
2, 22200, Note_on_c, 0, 59, 42
2, 22240, Note_on_c, 0, 59, 0
2, 22240, Note_on_c, 0, 66, 22
2, 22280, Note_on_c, 0, 66, 0
2, 22280, Note_on_c, 0, 69, 26
2, 22320, Note_on_c, 0, 69, 0
2, 22320, Note_on_c, 0, 59, 33
2, 22360, Note_on_c, 0, 59, 0
2, 22360, Note_on_c, 0, 66, 25
2, 22400, Note_on_c, 0, 66, 0
2, 22400, Note_on_c, 0, 69, 32
2, 22439, Note_on_c, 0, 71, 0
2, 22440, Note_on_c, 0, 69, 0
2, 22440, Note_on_c, 0, 59, 44
2, 22440, Note_on_c, 0, 71, 68
2, 22480, Note_on_c, 0, 59, 0
2, 22480, Note_on_c, 0, 66, 28
2, 22520, Note_on_c, 0, 66, 0
2, 22520, Note_on_c, 0, 69, 33
2, 22530, Note_on_c, 0, 71, 0
2, 22530, Note_on_c, 0, 71, 49
2, 22558, Control_c, 0, 64, 72
2, 22560, Note_on_c, 0, 71, 0
2, 22560, Note_on_c, 0, 69, 0
2, 22560, Note_on_c, 0, 71, 56
2, 22560, Note_on_c, 0, 59, 39
2, 22560, Control_c, 0, 64, 0
2, 22580, Control_c, 0, 64, 88
2, 22582, Control_c, 0, 64, 127
2, 22598, Note_on_c, 0, 64, 34
2, 22600, Note_on_c, 0, 59, 0
2, 22638, Note_on_c, 0, 64, 0
2, 22640, Note_on_c, 0, 68, 36
2, 22680, Note_on_c, 0, 68, 0
2, 22680, Note_on_c, 0, 59, 47
2, 22718, Note_on_c, 0, 64, 40
2, 22720, Note_on_c, 0, 59, 0
2, 22758, Note_on_c, 0, 64, 0
2, 22760, Note_on_c, 0, 68, 27
2, 22792, Control_c, 0, 64, 88
2, 22793, Control_c, 0, 64, 0
2, 22799, Note_on_c, 0, 71, 0
2, 22800, Note_on_c, 0, 68, 0
2, 22800, Note_on_c, 0, 60, 70
2, 22800, Note_on_c, 0, 72, 75
2, 22812, Control_c, 0, 64, 88
2, 22815, Control_c, 0, 64, 127
2, 22840, Note_on_c, 0, 60, 0
2, 22840, Note_on_c, 0, 66, 33
2, 22880, Note_on_c, 0, 66, 0
2, 22880, Note_on_c, 0, 68, 51
2, 22915, Control_c, 0, 64, 56
2, 22917, Control_c, 0, 64, 0
2, 22919, Note_on_c, 0, 72, 0
2, 22920, Note_on_c, 0, 68, 0
2, 22920, Note_on_c, 0, 61, 49
2, 22920, Note_on_c, 0, 73, 78
2, 22933, Control_c, 0, 64, 72
2, 22935, Control_c, 0, 64, 127
2, 22960, Note_on_c, 0, 64, 52
2, 22961, Note_on_c, 0, 61, 0
2, 23000, Note_on_c, 0, 64, 0
2, 23000, Note_on_c, 0, 68, 55
2, 23038, Control_c, 0, 64, 56
2, 23039, Note_on_c, 0, 73, 0
2, 23040, Note_on_c, 0, 68, 0
2, 23040, Note_on_c, 0, 63, 65
2, 23040, Note_on_c, 0, 75, 78
2, 23040, Control_c, 0, 64, 0
2, 23060, Control_c, 0, 64, 127
2, 23080, Note_on_c, 0, 63, 0
2, 23080, Note_on_c, 0, 66, 42
2, 23120, Note_on_c, 0, 66, 0
2, 23120, Note_on_c, 0, 68, 42
2, 23160, Note_on_c, 0, 68, 0
2, 23160, Note_on_c, 0, 63, 49
2, 23200, Note_on_c, 0, 63, 0
2, 23200, Note_on_c, 0, 66, 39
2, 23240, Note_on_c, 0, 66, 0
2, 23240, Note_on_c, 0, 68, 46
2, 23278, Control_c, 0, 64, 40
2, 23279, Note_on_c, 0, 75, 0
2, 23280, Note_on_c, 0, 68, 0
2, 23280, Note_on_c, 0, 64, 59
2, 23280, Note_on_c, 0, 76, 80
2, 23280, Control_c, 0, 64, 0
2, 23298, Control_c, 0, 64, 104
2, 23300, Control_c, 0, 64, 127
2, 23320, Note_on_c, 0, 64, 0
2, 23320, Note_on_c, 0, 68, 34
2, 23360, Note_on_c, 0, 68, 0
2, 23360, Note_on_c, 0, 73, 36
2, 23400, Note_on_c, 0, 73, 0
2, 23400, Note_on_c, 0, 64, 36
2, 23440, Note_on_c, 0, 64, 0
2, 23440, Note_on_c, 0, 68, 27
2, 23480, Note_on_c, 0, 68, 0
2, 23480, Note_on_c, 0, 73, 31
2, 23519, Note_on_c, 0, 76, 0
2, 23520, Note_on_c, 0, 73, 0
2, 23520, Note_on_c, 0, 62, 37
2, 23520, Note_on_c, 0, 74, 54
2, 23520, Control_c, 0, 64, 104
2, 23522, Control_c, 0, 64, 0
2, 23540, Control_c, 0, 64, 56
2, 23542, Control_c, 0, 64, 127
2, 23560, Note_on_c, 0, 62, 0
2, 23560, Note_on_c, 0, 66, 18
2, 23600, Note_on_c, 0, 66, 0
2, 23600, Note_on_c, 0, 69, 19
2, 23640, Note_on_c, 0, 69, 0
2, 23640, Note_on_c, 0, 62, 29
2, 23680, Note_on_c, 0, 62, 0
2, 23680, Note_on_c, 0, 66, 36
2, 23720, Note_on_c, 0, 66, 0
2, 23720, Note_on_c, 0, 69, 25
2, 23759, Note_on_c, 0, 74, 0
2, 23760, Note_on_c, 0, 69, 0
2, 23760, Note_on_c, 0, 72, 49
2, 23760, Note_on_c, 0, 60, 32
2, 23760, Control_c, 0, 64, 24
2, 23762, Control_c, 0, 64, 0
2, 23780, Control_c, 0, 64, 127
2, 23800, Note_on_c, 0, 60, 0
2, 23800, Note_on_c, 0, 66, 25
2, 23840, Note_on_c, 0, 66, 0
2, 23840, Note_on_c, 0, 68, 30
2, 23880, Note_on_c, 0, 68, 0
2, 23880, Note_on_c, 0, 60, 33
2, 23920, Note_on_c, 0, 60, 0
2, 23920, Note_on_c, 0, 66, 26
2, 23960, Note_on_c, 0, 66, 0
2, 23960, Note_on_c, 0, 68, 34
2, 23996, Control_c, 0, 64, 24
2, 23998, Control_c, 0, 64, 0
2, 23999, Note_on_c, 0, 72, 0
2, 24000, Note_on_c, 0, 68, 0
2, 24000, Note_on_c, 0, 73, 58
2, 24000, Note_on_c, 0, 61, 33
2, 24016, Control_c, 0, 64, 56
2, 24018, Control_c, 0, 64, 127
2, 24040, Note_on_c, 0, 61, 0
2, 24040, Note_on_c, 0, 64, 28
2, 24080, Note_on_c, 0, 64, 0
2, 24080, Note_on_c, 0, 68, 29
2, 24120, Note_on_c, 0, 68, 0
2, 24120, Note_on_c, 0, 61, 28
2, 24160, Note_on_c, 0, 61, 0
2, 24160, Note_on_c, 0, 64, 32
2, 24200, Note_on_c, 0, 64, 0
2, 24200, Note_on_c, 0, 68, 31
2, 24240, Note_on_c, 0, 68, 0
2, 24240, Note_on_c, 0, 61, 31
2, 24280, Note_on_c, 0, 61, 0
2, 24280, Note_on_c, 0, 65, 25
2, 24320, Note_on_c, 0, 65, 0
2, 24320, Note_on_c, 0, 68, 34
2, 24355, Control_c, 0, 64, 104
2, 24357, Control_c, 0, 64, 0
2, 24359, Note_on_c, 0, 73, 0
2, 24360, Note_on_c, 0, 68, 0
2, 24360, Note_on_c, 0, 61, 45
2, 24360, Note_on_c, 0, 73, 71
2, 24371, Control_c, 0, 64, 72
2, 24373, Control_c, 0, 64, 127
2, 24400, Note_on_c, 0, 61, 0
2, 24400, Note_on_c, 0, 65, 28
2, 24440, Note_on_c, 0, 65, 0
2, 24440, Note_on_c, 0, 68, 43
2, 24470, Note_on_c, 0, 61, 38
2, 24479, Note_on_c, 0, 73, 0
2, 24480, Note_on_c, 0, 68, 0
2, 24480, Note_on_c, 0, 74, 64
2, 24486, Control_c, 0, 64, 0
2, 24502, Control_c, 0, 64, 104
2, 24505, Control_c, 0, 64, 127
2, 24519, Note_on_c, 0, 61, 0
2, 24520, Note_on_c, 0, 66, 39
2, 24560, Note_on_c, 0, 66, 0
2, 24560, Note_on_c, 0, 69, 31
2, 24597, Control_c, 0, 64, 0
2, 24600, Note_on_c, 0, 69, 0
2, 24600, Note_on_c, 0, 61, 49
2, 24613, Control_c, 0, 64, 56
2, 24615, Control_c, 0, 64, 127
2, 24640, Note_on_c, 0, 61, 0
2, 24640, Note_on_c, 0, 66, 42
2, 24680, Note_on_c, 0, 66, 0
2, 24680, Note_on_c, 0, 69, 25
2, 24713, Control_c, 0, 64, 72
2, 24716, Control_c, 0, 64, 0
2, 24720, Note_on_c, 0, 69, 0
2, 24720, Note_on_c, 0, 57, 70
2, 24720, Note_on_c, 0, 61, 57
2, 24730, Control_c, 0, 64, 56
2, 24732, Control_c, 0, 64, 127
2, 24760, Note_on_c, 0, 61, 0
2, 24760, Note_on_c, 0, 66, 28
2, 24800, Note_on_c, 0, 66, 0
2, 24800, Note_on_c, 0, 69, 41
2, 24839, Note_on_c, 0, 57, 0
2, 24839, Note_on_c, 0, 74, 0
2, 24840, Note_on_c, 0, 69, 0
2, 24840, Note_on_c, 0, 61, 44
2, 24840, Note_on_c, 0, 72, 60
2, 24841, Control_c, 0, 64, 104
2, 24843, Control_c, 0, 64, 0
2, 24858, Control_c, 0, 64, 104
2, 24861, Control_c, 0, 64, 127
2, 24880, Note_on_c, 0, 61, 0
2, 24880, Note_on_c, 0, 66, 29
2, 24920, Note_on_c, 0, 66, 0
2, 24920, Note_on_c, 0, 69, 35
2, 24959, Note_on_c, 0, 72, 0
2, 24960, Note_on_c, 0, 69, 0
2, 24960, Note_on_c, 0, 73, 46
2, 24960, Note_on_c, 0, 61, 33
2, 24965, Control_c, 0, 64, 0
2, 24985, Control_c, 0, 64, 104
2, 24986, Control_c, 0, 64, 127
2, 25000, Note_on_c, 0, 61, 0
2, 25000, Note_on_c, 0, 65, 27
2, 25040, Note_on_c, 0, 65, 0
2, 25040, Note_on_c, 0, 68, 34
2, 25080, Note_on_c, 0, 68, 0
2, 25080, Note_on_c, 0, 61, 30
2, 25120, Note_on_c, 0, 61, 0
2, 25120, Note_on_c, 0, 65, 27
2, 25160, Note_on_c, 0, 65, 0
2, 25160, Note_on_c, 0, 68, 35
2, 25200, Note_on_c, 0, 68, 0
2, 25200, Note_on_c, 0, 61, 30
2, 25240, Note_on_c, 0, 61, 0
2, 25240, Note_on_c, 0, 65, 26
2, 25280, Note_on_c, 0, 65, 0
2, 25280, Note_on_c, 0, 68, 37
2, 25319, Note_on_c, 0, 73, 0
2, 25320, Note_on_c, 0, 68, 0
2, 25320, Note_on_c, 0, 61, 49
2, 25320, Note_on_c, 0, 73, 65
2, 25360, Note_on_c, 0, 61, 0
2, 25360, Note_on_c, 0, 65, 34
2, 25400, Note_on_c, 0, 65, 0
2, 25400, Note_on_c, 0, 68, 37
2, 25430, Note_on_c, 0, 61, 44
2, 25439, Note_on_c, 0, 73, 0
2, 25440, Note_on_c, 0, 68, 0
2, 25440, Note_on_c, 0, 74, 88
2, 25479, Note_on_c, 0, 61, 0
2, 25480, Note_on_c, 0, 66, 38
2, 25520, Note_on_c, 0, 66, 0
2, 25520, Note_on_c, 0, 69, 26
2, 25552, Control_c, 0, 64, 56
2, 25555, Control_c, 0, 64, 0
2, 25560, Note_on_c, 0, 69, 0
2, 25560, Note_on_c, 0, 61, 45
2, 25565, Control_c, 0, 64, 40
2, 25567, Control_c, 0, 64, 127
2, 25600, Note_on_c, 0, 61, 0
2, 25600, Note_on_c, 0, 66, 23
2, 25640, Note_on_c, 0, 66, 0
2, 25640, Note_on_c, 0, 69, 36
2, 25673, Control_c, 0, 64, 24
2, 25676, Control_c, 0, 64, 0
2, 25680, Note_on_c, 0, 69, 0
2, 25680, Note_on_c, 0, 57, 60
2, 25680, Note_on_c, 0, 61, 59
2, 25686, Control_c, 0, 64, 56
2, 25687, Control_c, 0, 64, 127
2, 25720, Note_on_c, 0, 61, 0
2, 25720, Note_on_c, 0, 66, 35
2, 25760, Note_on_c, 0, 66, 0
2, 25760, Note_on_c, 0, 69, 46
2, 25797, Control_c, 0, 64, 72
2, 25798, Control_c, 0, 64, 0
2, 25799, Note_on_c, 0, 57, 0
2, 25799, Note_on_c, 0, 74, 0
2, 25800, Note_on_c, 0, 69, 0
2, 25800, Note_on_c, 0, 61, 36
2, 25800, Note_on_c, 0, 72, 58
2, 25811, Control_c, 0, 64, 72
2, 25813, Control_c, 0, 64, 127
2, 25840, Note_on_c, 0, 61, 0
2, 25840, Note_on_c, 0, 66, 31
2, 25880, Note_on_c, 0, 66, 0
2, 25880, Note_on_c, 0, 69, 33
2, 25919, Note_on_c, 0, 72, 0
2, 25920, Note_on_c, 0, 69, 0
2, 25920, Note_on_c, 0, 73, 46
2, 25920, Note_on_c, 0, 61, 31
2, 25922, Control_c, 0, 64, 104
2, 25923, Control_c, 0, 64, 24
2, 25926, Control_c, 0, 64, 0
2, 25940, Control_c, 0, 64, 88
2, 25942, Control_c, 0, 64, 127
2, 25960, Note_on_c, 0, 61, 0
2, 25960, Note_on_c, 0, 65, 31
2, 26000, Note_on_c, 0, 65, 0
2, 26000, Note_on_c, 0, 68, 27
2, 26040, Note_on_c, 0, 68, 0
2, 26040, Note_on_c, 0, 61, 34
2, 26080, Note_on_c, 0, 61, 0
2, 26080, Note_on_c, 0, 65, 26
2, 26120, Note_on_c, 0, 65, 0
2, 26120, Note_on_c, 0, 68, 37
2, 26152, Control_c, 0, 64, 72
2, 26153, Control_c, 0, 64, 0
2, 26159, Note_on_c, 0, 73, 0
2, 26160, Note_on_c, 0, 68, 0
2, 26160, Note_on_c, 0, 61, 18
2, 26160, Note_on_c, 0, 73, 57
2, 26172, Control_c, 0, 64, 40
2, 26173, Control_c, 0, 64, 127
2, 26200, Note_on_c, 0, 61, 0
2, 26200, Note_on_c, 0, 66, 28
2, 26240, Note_on_c, 0, 66, 0
2, 26240, Note_on_c, 0, 69, 29
2, 26280, Note_on_c, 0, 69, 0
2, 26280, Note_on_c, 0, 61, 25
2, 26320, Note_on_c, 0, 61, 0
2, 26320, Note_on_c, 0, 66, 26
2, 26360, Note_on_c, 0, 66, 0
2, 26360, Note_on_c, 0, 69, 27
2, 26399, Note_on_c, 0, 73, 0
2, 26400, Note_on_c, 0, 69, 0
2, 26400, Note_on_c, 0, 71, 60
2, 26400, Note_on_c, 0, 59, 32
2, 26402, Control_c, 0, 64, 56
2, 26403, Control_c, 0, 64, 0
2, 26422, Control_c, 0, 64, 104
2, 26423, Control_c, 0, 64, 127
2, 26440, Note_on_c, 0, 59, 0
2, 26440, Note_on_c, 0, 66, 25
2, 26480, Note_on_c, 0, 66, 0
2, 26480, Note_on_c, 0, 69, 24
2, 26520, Note_on_c, 0, 69, 0
2, 26520, Note_on_c, 0, 59, 45
2, 26560, Note_on_c, 0, 59, 0
2, 26560, Note_on_c, 0, 66, 22
2, 26600, Note_on_c, 0, 66, 0
2, 26600, Note_on_c, 0, 69, 33
2, 26640, Note_on_c, 0, 69, 0
2, 26640, Note_on_c, 0, 59, 32
2, 26680, Note_on_c, 0, 59, 0
2, 26680, Note_on_c, 0, 66, 23
2, 26720, Note_on_c, 0, 66, 0
2, 26720, Note_on_c, 0, 69, 39
2, 26757, Control_c, 0, 64, 88
2, 26758, Control_c, 0, 64, 0
2, 26759, Note_on_c, 0, 71, 0
2, 26760, Note_on_c, 0, 69, 0
2, 26760, Note_on_c, 0, 59, 37
2, 26760, Note_on_c, 0, 71, 55
2, 26775, Control_c, 0, 64, 40
2, 26777, Control_c, 0, 64, 104
2, 26778, Control_c, 0, 64, 127
2, 26800, Note_on_c, 0, 59, 0
2, 26800, Note_on_c, 0, 64, 42
2, 26840, Note_on_c, 0, 64, 0
2, 26840, Note_on_c, 0, 68, 44
2, 26876, Control_c, 0, 64, 0
2, 26879, Note_on_c, 0, 71, 0
2, 26880, Note_on_c, 0, 68, 0
2, 26880, Note_on_c, 0, 57, 51
2, 26880, Note_on_c, 0, 69, 60
2, 26892, Control_c, 0, 64, 56
2, 26893, Control_c, 0, 64, 127
2, 26920, Note_on_c, 0, 57, 0
2, 26920, Note_on_c, 0, 64, 33
2, 26960, Note_on_c, 0, 64, 0
2, 26960, Note_on_c, 0, 68, 33
2, 26995, Control_c, 0, 64, 72
2, 26996, Control_c, 0, 64, 0
2, 26999, Note_on_c, 0, 69, 0
2, 27000, Note_on_c, 0, 68, 0
2, 27000, Note_on_c, 0, 57, 40
2, 27000, Note_on_c, 0, 69, 57
2, 27008, Control_c, 0, 64, 24
2, 27011, Control_c, 0, 64, 88
2, 27012, Control_c, 0, 64, 127
2, 27040, Note_on_c, 0, 57, 0
2, 27040, Note_on_c, 0, 63, 44
2, 27080, Note_on_c, 0, 63, 0
2, 27080, Note_on_c, 0, 66, 40
2, 27113, Control_c, 0, 64, 72
2, 27116, Control_c, 0, 64, 0
2, 27119, Note_on_c, 0, 69, 0
2, 27120, Note_on_c, 0, 66, 0
2, 27120, Note_on_c, 0, 68, 68
2, 27133, Control_c, 0, 64, 72
2, 27136, Control_c, 0, 64, 127
2, 27160, Note_on_c, 0, 63, 34
2, 27200, Note_on_c, 0, 63, 0
2, 27200, Note_on_c, 0, 66, 37
2, 27238, Control_c, 0, 64, 0
2, 27239, Note_on_c, 0, 68, 0
2, 27240, Note_on_c, 0, 66, 0
2, 27240, Note_on_c, 0, 68, 57
2, 27255, Control_c, 0, 64, 56
2, 27257, Control_c, 0, 64, 127
2, 27280, Note_on_c, 0, 61, 38
2, 27320, Note_on_c, 0, 61, 0
2, 27320, Note_on_c, 0, 64, 39
2, 27359, Note_on_c, 0, 68, 0
2, 27360, Note_on_c, 0, 64, 0
2, 27360, Note_on_c, 0, 66, 56
2, 27362, Control_c, 0, 64, 0
2, 27380, Control_c, 0, 64, 40
2, 27382, Control_c, 0, 64, 127
2, 27400, Note_on_c, 0, 61, 33
2, 27440, Note_on_c, 0, 61, 0
2, 27440, Note_on_c, 0, 63, 34
2, 27480, Note_on_c, 0, 63, 0
2, 27520, Note_on_c, 0, 61, 37
2, 27560, Note_on_c, 0, 61, 0
2, 27560, Note_on_c, 0, 63, 36
2, 27597, Control_c, 0, 64, 56
2, 27599, Note_on_c, 0, 66, 0
2, 27600, Note_on_c, 0, 63, 0
2, 27600, Note_on_c, 0, 68, 67
2, 27600, Control_c, 0, 64, 0
2, 27617, Control_c, 0, 64, 127
2, 27640, Note_on_c, 0, 61, 34
2, 27680, Note_on_c, 0, 61, 0
2, 27680, Note_on_c, 0, 63, 33
2, 27719, Note_on_c, 0, 68, 0
2, 27720, Note_on_c, 0, 63, 0
2, 27720, Note_on_c, 0, 69, 70
2, 27720, Note_on_c, 0, 57, 56
2, 27725, Control_c, 0, 64, 0
2, 27726, Control_c, 0, 64, 88
2, 27741, Control_c, 0, 64, 40
2, 27743, Control_c, 0, 64, 127
2, 27760, Note_on_c, 0, 57, 0
2, 27760, Note_on_c, 0, 61, 35
2, 27800, Note_on_c, 0, 61, 0
2, 27800, Note_on_c, 0, 63, 39
2, 27837, Control_c, 0, 64, 104
2, 27839, Note_on_c, 0, 69, 0
2, 27840, Note_on_c, 0, 63, 0
2, 27840, Note_on_c, 0, 68, 61
2, 27840, Control_c, 0, 64, 0
2, 27857, Control_c, 0, 64, 104
2, 27860, Control_c, 0, 64, 127
2, 27880, Note_on_c, 0, 61, 31
2, 27920, Note_on_c, 0, 61, 0
2, 27920, Note_on_c, 0, 64, 31
2, 27960, Note_on_c, 0, 64, 0
2, 28000, Note_on_c, 0, 61, 26
2, 28040, Note_on_c, 0, 61, 0
2, 28040, Note_on_c, 0, 64, 36
2, 28076, Control_c, 0, 64, 24
2, 28079, Note_on_c, 0, 68, 0
2, 28080, Note_on_c, 0, 64, 0
2, 28080, Note_on_c, 0, 68, 44
2, 28080, Control_c, 0, 64, 0
2, 28096, Control_c, 0, 64, 88
2, 28097, Control_c, 0, 64, 127
2, 28120, Note_on_c, 0, 60, 22
2, 28160, Note_on_c, 0, 60, 0
2, 28160, Note_on_c, 0, 63, 33
2, 28199, Note_on_c, 0, 68, 0
2, 28200, Note_on_c, 0, 63, 0
2, 28240, Note_on_c, 0, 60, 27
2, 28280, Note_on_c, 0, 60, 0
2, 28280, Note_on_c, 0, 63, 43
2, 28313, Control_c, 0, 64, 88
2, 28316, Control_c, 0, 64, 0
2, 28320, Note_on_c, 0, 63, 0
2, 28320, Note_on_c, 0, 61, 40
2, 28333, Control_c, 0, 64, 88
2, 28336, Control_c, 0, 64, 127
2, 28400, Note_on_c, 0, 61, 42
2, 28439, Note_on_c, 0, 61, 0
2, 28440, Note_on_c, 0, 61, 0
2, 28480, Note_on_c, 0, 61, 28
2, 28520, Note_on_c, 0, 61, 0
2, 28520, Note_on_c, 0, 64, 38
2, 28560, Note_on_c, 0, 64, 0
2, 28600, Note_on_c, 0, 61, 32
2, 28640, Note_on_c, 0, 61, 0
2, 28640, Note_on_c, 0, 64, 38
2, 28680, Note_on_c, 0, 64, 0
2, 28720, Note_on_c, 0, 61, 37
2, 28760, Note_on_c, 0, 61, 0
2, 28760, Note_on_c, 0, 64, 36
2, 28800, Note_on_c, 0, 64, 0
2, 28803, Control_c, 0, 64, 88
2, 28805, Control_c, 0, 64, 0
2, 28826, Control_c, 0, 64, 88
2, 28827, Control_c, 0, 64, 127
2, 28840, Note_on_c, 0, 63, 38
2, 28880, Note_on_c, 0, 63, 0
2, 28880, Note_on_c, 0, 66, 36
2, 28920, Note_on_c, 0, 66, 0
2, 28960, Note_on_c, 0, 63, 28
2, 29000, Note_on_c, 0, 63, 0
2, 29000, Note_on_c, 0, 66, 30
2, 29040, Note_on_c, 0, 66, 0
2, 29080, Note_on_c, 0, 63, 34
2, 29120, Note_on_c, 0, 63, 0
2, 29120, Note_on_c, 0, 66, 30
2, 29160, Note_on_c, 0, 66, 0
2, 29200, Note_on_c, 0, 63, 34
2, 29240, Note_on_c, 0, 63, 0
2, 29240, Note_on_c, 0, 66, 39
2, 29280, Note_on_c, 0, 66, 0
2, 29281, Control_c, 0, 64, 40
2, 29283, Control_c, 0, 64, 0
2, 29302, Control_c, 0, 64, 127
2, 29320, Note_on_c, 0, 64, 51
2, 29360, Note_on_c, 0, 64, 0
2, 29360, Note_on_c, 0, 61, 33
2, 29400, Note_on_c, 0, 61, 0
2, 29400, Note_on_c, 0, 68, 65
2, 29440, Note_on_c, 0, 68, 0
2, 29440, Note_on_c, 0, 64, 42
2, 29480, Note_on_c, 0, 64, 0
2, 29480, Note_on_c, 0, 73, 61
2, 29520, Note_on_c, 0, 73, 0
2, 29520, Note_on_c, 0, 68, 53
2, 29560, Note_on_c, 0, 68, 0
2, 29560, Note_on_c, 0, 76, 74
2, 29600, Note_on_c, 0, 76, 0
2, 29600, Note_on_c, 0, 73, 55
2, 29626, Control_c, 0, 64, 104
2, 29627, Control_c, 0, 64, 0
2, 29640, Note_on_c, 0, 73, 0
2, 29640, Note_on_c, 0, 80, 73
2, 29646, Control_c, 0, 64, 56
2, 29648, Control_c, 0, 64, 127
2, 29680, Note_on_c, 0, 80, 0
2, 29680, Note_on_c, 0, 76, 52
2, 29720, Note_on_c, 0, 76, 0
2, 29720, Note_on_c, 0, 73, 56
2, 29760, Note_on_c, 0, 73, 0
2, 29760, Note_on_c, 0, 72, 66
2, 29761, Control_c, 0, 64, 88
2, 29763, Control_c, 0, 64, 0
2, 29781, Control_c, 0, 64, 127
2, 29800, Note_on_c, 0, 72, 0
2, 29800, Note_on_c, 0, 75, 52
2, 29840, Note_on_c, 0, 75, 0
2, 29840, Note_on_c, 0, 69, 46
2, 29880, Note_on_c, 0, 69, 0
2, 29880, Note_on_c, 0, 72, 64
2, 29920, Note_on_c, 0, 72, 0
2, 29920, Note_on_c, 0, 66, 40
2, 29960, Note_on_c, 0, 66, 0
2, 29960, Note_on_c, 0, 69, 39
2, 30000, Note_on_c, 0, 69, 0
2, 30000, Note_on_c, 0, 63, 57
2, 30040, Note_on_c, 0, 63, 0
2, 30040, Note_on_c, 0, 66, 45
2, 30080, Note_on_c, 0, 66, 0
2, 30080, Note_on_c, 0, 57, 52
2, 30115, Control_c, 0, 64, 72
2, 30116, Control_c, 0, 64, 0
2, 30120, Note_on_c, 0, 57, 0
2, 30120, Note_on_c, 0, 60, 67
2, 30130, Control_c, 0, 64, 72
2, 30132, Control_c, 0, 64, 127
2, 30160, Note_on_c, 0, 60, 0
2, 30240, Note_on_c, 0, 61, 58
2, 30240, Control_c, 0, 64, 0
2, 30261, Control_c, 0, 64, 127
2, 30280, Note_on_c, 0, 61, 0
2, 30280, Note_on_c, 0, 64, 61
2, 30320, Note_on_c, 0, 64, 0
2, 30320, Note_on_c, 0, 61, 45
2, 30360, Note_on_c, 0, 61, 0
2, 30360, Note_on_c, 0, 68, 62
2, 30400, Note_on_c, 0, 68, 0
2, 30400, Note_on_c, 0, 64, 53
2, 30440, Note_on_c, 0, 64, 0
2, 30440, Note_on_c, 0, 73, 67
2, 30480, Note_on_c, 0, 73, 0
2, 30480, Note_on_c, 0, 68, 42
2, 30520, Note_on_c, 0, 68, 0
2, 30520, Note_on_c, 0, 76, 74
2, 30560, Note_on_c, 0, 76, 0
2, 30560, Note_on_c, 0, 73, 48
2, 30586, Control_c, 0, 64, 104
2, 30588, Control_c, 0, 64, 24
2, 30590, Control_c, 0, 64, 0
2, 30600, Note_on_c, 0, 73, 0
2, 30600, Note_on_c, 0, 80, 72
2, 30610, Control_c, 0, 64, 88
2, 30612, Control_c, 0, 64, 127
2, 30640, Note_on_c, 0, 80, 0
2, 30640, Note_on_c, 0, 76, 62
2, 30680, Note_on_c, 0, 76, 0
2, 30680, Note_on_c, 0, 73, 56
2, 30720, Note_on_c, 0, 73, 0
2, 30720, Note_on_c, 0, 72, 64
2, 30720, Control_c, 0, 64, 24
2, 30721, Control_c, 0, 64, 0
2, 30737, Control_c, 0, 64, 104
2, 30740, Control_c, 0, 64, 127
2, 30760, Note_on_c, 0, 72, 0
2, 30760, Note_on_c, 0, 75, 46
2, 30800, Note_on_c, 0, 75, 0
2, 30800, Note_on_c, 0, 69, 44
2, 30840, Note_on_c, 0, 69, 0
2, 30840, Note_on_c, 0, 72, 55
2, 30880, Note_on_c, 0, 72, 0
2, 30880, Note_on_c, 0, 66, 50
2, 30920, Note_on_c, 0, 66, 0
2, 30920, Note_on_c, 0, 69, 49
2, 30960, Note_on_c, 0, 69, 0
2, 30960, Note_on_c, 0, 63, 62
2, 31000, Note_on_c, 0, 63, 0
2, 31000, Note_on_c, 0, 66, 49
2, 31040, Note_on_c, 0, 66, 0
2, 31040, Note_on_c, 0, 57, 62
2, 31068, Control_c, 0, 64, 40
2, 31070, Control_c, 0, 64, 0
2, 31080, Note_on_c, 0, 57, 0
2, 31080, Note_on_c, 0, 60, 63
2, 31085, Control_c, 0, 64, 56
2, 31086, Control_c, 0, 64, 127
2, 31120, Note_on_c, 0, 60, 0
2, 31198, Control_c, 0, 64, 24
2, 31200, Note_on_c, 0, 61, 57
2, 31201, Control_c, 0, 64, 0
2, 31220, Control_c, 0, 64, 127
2, 31280, Note_on_c, 0, 61, 51
2, 31319, Note_on_c, 0, 61, 0
2, 31320, Note_on_c, 0, 61, 0
2, 31320, Note_on_c, 0, 64, 49
2, 31360, Note_on_c, 0, 64, 0
2, 31360, Note_on_c, 0, 61, 37
2, 31400, Note_on_c, 0, 61, 0
2, 31560, Note_on_c, 0, 61, 49
2, 31600, Note_on_c, 0, 61, 0
2, 32161, Control_c, 0, 64, 88
2, 32167, Control_c, 0, 64, 127
2, 32400, Note_on_c, 0, 61, 49
2, 32639, Note_on_c, 0, 61, 0
2, 32640, Note_on_c, 0, 61, 33
2, 32877, Control_c, 0, 64, 72
2, 32878, Control_c, 0, 64, 24
2, 32881, Control_c, 0, 64, 0
2, 33119, Note_on_c, 0, 61, 0
2, 33119, End_track
3, 0, Start_track
3, 0, MIDI_port, 0
3, 0, Title_t, "Sonata Quasi Una Fantasia "
3, 0, Control_c, 0, 0, 0
3, 0, Program_c, 0, 0
3, 0, Note_on_c, 0, 49, 29
3, 0, Note_on_c, 0, 37, 37
3, 0, Note_on_c, 0, 56, 46
3, 40, Note_on_c, 0, 56, 0
3, 120, Note_on_c, 0, 56, 38
3, 160, Note_on_c, 0, 56, 0
3, 240, Note_on_c, 0, 56, 32
3, 280, Note_on_c, 0, 56, 0
3, 360, Note_on_c, 0, 56, 33
3, 400, Note_on_c, 0, 56, 0
3, 479, Note_on_c, 0, 37, 0
3, 479, Note_on_c, 0, 49, 0
3, 480, Note_on_c, 0, 47, 38
3, 480, Note_on_c, 0, 35, 42
3, 480, Note_on_c, 0, 56, 25
3, 520, Note_on_c, 0, 56, 0
3, 600, Note_on_c, 0, 56, 30
3, 640, Note_on_c, 0, 56, 0
3, 720, Note_on_c, 0, 56, 27
3, 760, Note_on_c, 0, 56, 0
3, 840, Note_on_c, 0, 56, 37
3, 880, Note_on_c, 0, 56, 0
3, 959, Note_on_c, 0, 35, 0
3, 959, Note_on_c, 0, 47, 0
3, 960, Note_on_c, 0, 45, 39
3, 960, Note_on_c, 0, 33, 37
3, 1199, Note_on_c, 0, 33, 0
3, 1199, Note_on_c, 0, 45, 0
3, 1200, Note_on_c, 0, 42, 29
3, 1200, Note_on_c, 0, 30, 27
3, 1439, Note_on_c, 0, 30, 0
3, 1439, Note_on_c, 0, 42, 0
3, 1440, Note_on_c, 0, 44, 31
3, 1440, Note_on_c, 0, 56, 44
3, 1440, Note_on_c, 0, 32, 37
3, 1480, Note_on_c, 0, 56, 0
3, 1560, Note_on_c, 0, 56, 44
3, 1600, Note_on_c, 0, 56, 0
3, 1679, Note_on_c, 0, 32, 0
3, 1679, Note_on_c, 0, 44, 0
3, 1680, Note_on_c, 0, 32, 39
3, 1680, Note_on_c, 0, 44, 32
3, 1680, Note_on_c, 0, 56, 37
3, 1720, Note_on_c, 0, 56, 0
3, 1799, Note_on_c, 0, 44, 0
3, 1799, Note_on_c, 0, 32, 0
3, 1800, Note_on_c, 0, 54, 39
3, 1840, Note_on_c, 0, 54, 0
3, 1920, Note_on_c, 0, 52, 36
3, 1920, Note_on_c, 0, 44, 33
3, 1920, Note_on_c, 0, 37, 25
3, 1920, Note_on_c, 0, 49, 23
3, 1960, Note_on_c, 0, 52, 0
3, 1960, Note_on_c, 0, 56, 27
3, 2000, Note_on_c, 0, 56, 0
3, 2040, Note_on_c, 0, 56, 36
3, 2080, Note_on_c, 0, 56, 0
3, 2160, Note_on_c, 0, 56, 42
3, 2200, Note_on_c, 0, 56, 0
3, 2280, Note_on_c, 0, 56, 46
3, 2320, Note_on_c, 0, 56, 0
3, 2399, Note_on_c, 0, 44, 0
3, 2399, Note_on_c, 0, 37, 0
3, 2399, Note_on_c, 0, 49, 0
3, 2400, Note_on_c, 0, 48, 28
3, 2400, Note_on_c, 0, 44, 32
3, 2400, Note_on_c, 0, 56, 43
3, 2400, Note_on_c, 0, 36, 40
3, 2440, Note_on_c, 0, 56, 0
3, 2520, Note_on_c, 0, 56, 32
3, 2560, Note_on_c, 0, 56, 0
3, 2640, Note_on_c, 0, 56, 27
3, 2680, Note_on_c, 0, 56, 0
3, 2760, Note_on_c, 0, 56, 32
3, 2800, Note_on_c, 0, 56, 0
3, 2879, Note_on_c, 0, 36, 0
3, 2879, Note_on_c, 0, 44, 0
3, 2879, Note_on_c, 0, 48, 0
3, 2880, Note_on_c, 0, 56, 54
3, 2880, Note_on_c, 0, 49, 34
3, 2880, Note_on_c, 0, 37, 37
3, 2920, Note_on_c, 0, 56, 0
3, 3000, Note_on_c, 0, 56, 23
3, 3040, Note_on_c, 0, 56, 0
3, 3119, Note_on_c, 0, 37, 0
3, 3119, Note_on_c, 0, 49, 0
3, 3120, Note_on_c, 0, 42, 28
3, 3120, Note_on_c, 0, 30, 33
3, 3359, Note_on_c, 0, 30, 0
3, 3359, Note_on_c, 0, 42, 0
3, 3360, Note_on_c, 0, 47, 24
3, 3360, Note_on_c, 0, 35, 37
3, 3360, Note_on_c, 0, 56, 25
3, 3400, Note_on_c, 0, 56, 0
3, 3480, Note_on_c, 0, 56, 25
3, 3520, Note_on_c, 0, 56, 0
3, 3599, Note_on_c, 0, 35, 0
3, 3599, Note_on_c, 0, 47, 0
3, 3600, Note_on_c, 0, 35, 25
3, 3600, Note_on_c, 0, 47, 24
3, 3839, Note_on_c, 0, 47, 0
3, 3839, Note_on_c, 0, 35, 0
3, 3840, Note_on_c, 0, 40, 36
3, 3840, Note_on_c, 0, 52, 21
3, 3840, Note_on_c, 0, 56, 25
3, 3880, Note_on_c, 0, 56, 0
3, 3960, Note_on_c, 0, 56, 22
3, 4000, Note_on_c, 0, 56, 0
3, 4080, Note_on_c, 0, 56, 25
3, 4120, Note_on_c, 0, 56, 0
3, 4200, Note_on_c, 0, 56, 27
3, 4240, Note_on_c, 0, 56, 0
3, 4319, Note_on_c, 0, 52, 0
3, 4319, Note_on_c, 0, 40, 0
3, 4320, Note_on_c, 0, 40, 36
3, 4320, Note_on_c, 0, 52, 33
3, 4320, Note_on_c, 0, 55, 36
3, 4360, Note_on_c, 0, 55, 0
3, 4440, Note_on_c, 0, 55, 34
3, 4480, Note_on_c, 0, 55, 0
3, 4560, Note_on_c, 0, 55, 29
3, 4600, Note_on_c, 0, 55, 0
3, 4680, Note_on_c, 0, 55, 41
3, 4720, Note_on_c, 0, 55, 0
3, 4799, Note_on_c, 0, 52, 0
3, 4799, Note_on_c, 0, 40, 0
3, 4800, Note_on_c, 0, 50, 19
3, 4800, Note_on_c, 0, 55, 26
3, 4800, Note_on_c, 0, 38, 25
3, 4840, Note_on_c, 0, 55, 0
3, 4920, Note_on_c, 0, 55, 25
3, 4960, Note_on_c, 0, 55, 0
3, 5040, Note_on_c, 0, 55, 26
3, 5080, Note_on_c, 0, 55, 0
3, 5160, Note_on_c, 0, 55, 34
3, 5200, Note_on_c, 0, 55, 0
3, 5279, Note_on_c, 0, 38, 0
3, 5279, Note_on_c, 0, 50, 0
3, 5280, Note_on_c, 0, 36, 32
3, 5280, Note_on_c, 0, 48, 40
3, 5280, Note_on_c, 0, 55, 40
3, 5320, Note_on_c, 0, 55, 0
3, 5399, Note_on_c, 0, 48, 0
3, 5399, Note_on_c, 0, 36, 0
3, 5400, Note_on_c, 0, 47, 40
3, 5400, Note_on_c, 0, 55, 40
3, 5400, Note_on_c, 0, 35, 46
3, 5440, Note_on_c, 0, 55, 0
3, 5519, Note_on_c, 0, 35, 0
3, 5519, Note_on_c, 0, 47, 0
3, 5520, Note_on_c, 0, 55, 52
3, 5520, Note_on_c, 0, 46, 38
3, 5520, Note_on_c, 0, 34, 37
3, 5560, Note_on_c, 0, 55, 0
3, 5640, Note_on_c, 0, 54, 47
3, 5680, Note_on_c, 0, 54, 0
3, 5759, Note_on_c, 0, 34, 0
3, 5759, Note_on_c, 0, 46, 0
3, 5760, Note_on_c, 0, 35, 34
3, 5760, Note_on_c, 0, 54, 32
3, 5760, Note_on_c, 0, 47, 40
3, 5800, Note_on_c, 0, 54, 0
3, 5880, Note_on_c, 0, 54, 30
3, 5920, Note_on_c, 0, 54, 0
3, 5999, Note_on_c, 0, 47, 0
3, 5999, Note_on_c, 0, 35, 0
3, 6000, Note_on_c, 0, 55, 48
3, 6000, Note_on_c, 0, 40, 43
3, 6040, Note_on_c, 0, 55, 0
3, 6119, Note_on_c, 0, 40, 0
3, 6120, Note_on_c, 0, 43, 44
3, 6120, Note_on_c, 0, 52, 47
3, 6160, Note_on_c, 0, 43, 0
3, 6239, Note_on_c, 0, 52, 0
3, 6240, Note_on_c, 0, 54, 39
3, 6240, Note_on_c, 0, 42, 34
3, 6280, Note_on_c, 0, 54, 0
3, 6360, Note_on_c, 0, 54, 30
3, 6479, Note_on_c, 0, 54, 0
3, 6479, Note_on_c, 0, 42, 0
3, 6480, Note_on_c, 0, 42, 34
3, 6480, Note_on_c, 0, 54, 31
3, 6480, Note_on_c, 0, 30, 34
3, 6520, Note_on_c, 0, 54, 0
3, 6600, Note_on_c, 0, 54, 27
3, 6640, Note_on_c, 0, 54, 0
3, 6719, Note_on_c, 0, 30, 0
3, 6719, Note_on_c, 0, 42, 0
3, 6720, Note_on_c, 0, 47, 40
3, 6720, Note_on_c, 0, 35, 42
3, 7319, Note_on_c, 0, 35, 0
3, 7319, Note_on_c, 0, 47, 0
3, 7320, Note_on_c, 0, 40, 52
3, 7320, Note_on_c, 0, 52, 53
3, 7439, Note_on_c, 0, 52, 0
3, 7439, Note_on_c, 0, 40, 0
3, 7440, Note_on_c, 0, 55, 81
3, 7440, Note_on_c, 0, 43, 77
3, 7559, Note_on_c, 0, 43, 0
3, 7559, Note_on_c, 0, 55, 0
3, 7560, Note_on_c, 0, 52, 51
3, 7560, Note_on_c, 0, 40, 34
3, 7679, Note_on_c, 0, 40, 0
3, 7679, Note_on_c, 0, 52, 0
3, 7680, Note_on_c, 0, 47, 29
3, 7680, Note_on_c, 0, 35, 33
3, 8200, Note_on_c, 0, 35, 0
3, 8200, Note_on_c, 0, 47, 0
3, 8280, Note_on_c, 0, 52, 46
3, 8280, Note_on_c, 0, 40, 48
3, 8399, Note_on_c, 0, 40, 0
3, 8399, Note_on_c, 0, 52, 0
3, 8400, Note_on_c, 0, 55, 74
3, 8400, Note_on_c, 0, 43, 68
3, 8519, Note_on_c, 0, 43, 0
3, 8519, Note_on_c, 0, 55, 0
3, 8520, Note_on_c, 0, 52, 47
3, 8520, Note_on_c, 0, 40, 34
3, 8639, Note_on_c, 0, 40, 0
3, 8639, Note_on_c, 0, 52, 0
3, 8640, Note_on_c, 0, 35, 53
3, 8640, Note_on_c, 0, 47, 31
3, 8879, Note_on_c, 0, 47, 0
3, 8879, Note_on_c, 0, 35, 0
3, 8880, Note_on_c, 0, 44, 36
3, 8880, Note_on_c, 0, 32, 32
3, 9119, Note_on_c, 0, 32, 0
3, 9119, Note_on_c, 0, 44, 0
3, 9120, Note_on_c, 0, 41, 34
3, 9120, Note_on_c, 0, 29, 39
3, 9359, Note_on_c, 0, 29, 0
3, 9359, Note_on_c, 0, 41, 0
3, 9360, Note_on_c, 0, 42, 38
3, 9360, Note_on_c, 0, 30, 28
3, 9599, Note_on_c, 0, 30, 0
3, 9599, Note_on_c, 0, 42, 0
3, 9600, Note_on_c, 0, 35, 38
3, 9600, Note_on_c, 0, 55, 48
3, 9600, Note_on_c, 0, 47, 51
3, 9640, Note_on_c, 0, 55, 0
3, 9720, Note_on_c, 0, 55, 48
3, 9760, Note_on_c, 0, 55, 0
3, 9839, Note_on_c, 0, 47, 0
3, 9839, Note_on_c, 0, 35, 0
3, 9840, Note_on_c, 0, 54, 37
3, 9840, Note_on_c, 0, 36, 36
3, 9840, Note_on_c, 0, 48, 49
3, 9880, Note_on_c, 0, 54, 0
3, 9960, Note_on_c, 0, 54, 26
3, 10000, Note_on_c, 0, 54, 0
3, 10079, Note_on_c, 0, 48, 0
3, 10079, Note_on_c, 0, 36, 0
3, 10080, Note_on_c, 0, 49, 28
3, 10080, Note_on_c, 0, 37, 29
3, 10120, Note_on_c, 0, 49, 0
3, 10120, Note_on_c, 0, 54, 18
3, 10160, Note_on_c, 0, 54, 0
3, 10200, Note_on_c, 0, 49, 34
3, 10240, Note_on_c, 0, 49, 0
3, 10240, Note_on_c, 0, 54, 29
3, 10280, Note_on_c, 0, 54, 0
3, 10319, Note_on_c, 0, 37, 0
3, 10320, Note_on_c, 0, 49, 25
3, 10320, Note_on_c, 0, 37, 37
3, 10360, Note_on_c, 0, 49, 0
3, 10360, Note_on_c, 0, 54, 25
3, 10400, Note_on_c, 0, 54, 0
3, 10400, Note_on_c, 0, 56, 30
3, 10439, Note_on_c, 0, 37, 0
3, 10440, Note_on_c, 0, 56, 0
3, 10440, Note_on_c, 0, 49, 23
3, 10440, Note_on_c, 0, 37, 29
3, 10480, Note_on_c, 0, 37, 0
3, 10480, Note_on_c, 0, 49, 0
3, 10480, Note_on_c, 0, 53, 31
3, 10520, Note_on_c, 0, 53, 0
3, 10520, Note_on_c, 0, 56, 40
3, 10560, Note_on_c, 0, 56, 0
3, 10560, Note_on_c, 0, 54, 36
3, 10560, Note_on_c, 0, 30, 39
3, 10560, Note_on_c, 0, 37, 23
3, 10560, Note_on_c, 0, 42, 26
3, 10600, Note_on_c, 0, 54, 0
3, 11039, Note_on_c, 0, 30, 0
3, 11039, Note_on_c, 0, 37, 0
3, 11039, Note_on_c, 0, 42, 0
3, 11040, Note_on_c, 0, 53, 34
3, 11040, Note_on_c, 0, 41, 29
3, 11040, Note_on_c, 0, 49, 27
3, 11519, Note_on_c, 0, 49, 0
3, 11519, Note_on_c, 0, 41, 0
3, 11519, Note_on_c, 0, 53, 0
3, 11520, Note_on_c, 0, 42, 31
3, 11520, Note_on_c, 0, 54, 22
3, 11759, Note_on_c, 0, 54, 0
3, 11759, Note_on_c, 0, 42, 0
3, 11760, Note_on_c, 0, 39, 56
3, 11760, Note_on_c, 0, 51, 51
3, 11879, Note_on_c, 0, 51, 0
3, 11879, Note_on_c, 0, 39, 0
3, 11880, Note_on_c, 0, 49, 62
3, 11880, Note_on_c, 0, 37, 50
3, 11999, Note_on_c, 0, 37, 0
3, 11999, Note_on_c, 0, 49, 0
3, 12000, Note_on_c, 0, 36, 51
3, 12000, Note_on_c, 0, 48, 51
3, 12000, Note_on_c, 0, 44, 45
3, 12359, Note_on_c, 0, 44, 0
3, 12359, Note_on_c, 0, 48, 0
3, 12359, Note_on_c, 0, 36, 0
3, 12360, Note_on_c, 0, 44, 37
3, 12360, Note_on_c, 0, 48, 56
3, 12360, Note_on_c, 0, 36, 57
3, 12479, Note_on_c, 0, 36, 0
3, 12479, Note_on_c, 0, 48, 0
3, 12479, Note_on_c, 0, 44, 0
3, 12480, Note_on_c, 0, 49, 43
3, 12480, Note_on_c, 0, 44, 46
3, 12480, Note_on_c, 0, 37, 28
3, 12719, Note_on_c, 0, 37, 0
3, 12719, Note_on_c, 0, 44, 0
3, 12719, Note_on_c, 0, 49, 0
3, 12720, Note_on_c, 0, 42, 27
3, 12720, Note_on_c, 0, 30, 33
3, 12839, Note_on_c, 0, 30, 0
3, 12839, Note_on_c, 0, 42, 0
3, 12840, Note_on_c, 0, 43, 46
3, 12840, Note_on_c, 0, 31, 34
3, 12959, Note_on_c, 0, 31, 0
3, 12959, Note_on_c, 0, 43, 0
3, 12960, Note_on_c, 0, 32, 38
3, 12960, Note_on_c, 0, 44, 27
3, 13439, Note_on_c, 0, 44, 0
3, 13439, Note_on_c, 0, 32, 0
3, 13440, Note_on_c, 0, 44, 32
3, 13440, Note_on_c, 0, 32, 39
3, 13480, Note_on_c, 0, 48, 42
3, 13520, Note_on_c, 0, 48, 0
3, 13520, Note_on_c, 0, 51, 38
3, 13560, Note_on_c, 0, 51, 0
3, 13560, Note_on_c, 0, 56, 65
3, 13600, Note_on_c, 0, 48, 46
3, 13640, Note_on_c, 0, 48, 0
3, 13640, Note_on_c, 0, 51, 56
3, 13679, Note_on_c, 0, 56, 0
3, 13680, Note_on_c, 0, 51, 0
3, 13718, Note_on_c, 0, 48, 58
3, 13758, Note_on_c, 0, 48, 0
3, 13760, Note_on_c, 0, 51, 43
3, 13800, Note_on_c, 0, 51, 0
3, 13800, Note_on_c, 0, 54, 50
3, 13840, Note_on_c, 0, 48, 48
3, 13880, Note_on_c, 0, 48, 0
3, 13880, Note_on_c, 0, 51, 35
3, 13919, Note_on_c, 0, 44, 0
3, 13919, Note_on_c, 0, 54, 0
3, 13919, Note_on_c, 0, 32, 0
3, 13920, Note_on_c, 0, 51, 0
3, 13920, Note_on_c, 0, 32, 39
3, 13920, Note_on_c, 0, 44, 37
3, 13920, Note_on_c, 0, 52, 54
3, 13960, Note_on_c, 0, 52, 0
3, 14399, Note_on_c, 0, 44, 0
3, 14399, Note_on_c, 0, 32, 0
3, 14400, Note_on_c, 0, 44, 38
3, 14400, Note_on_c, 0, 32, 42
3, 14440, Note_on_c, 0, 52, 34
3, 14480, Note_on_c, 0, 52, 0
3, 14480, Note_on_c, 0, 56, 30
3, 14520, Note_on_c, 0, 56, 0
3, 14560, Note_on_c, 0, 52, 44
3, 14600, Note_on_c, 0, 52, 0
3, 14600, Note_on_c, 0, 56, 58
3, 14640, Note_on_c, 0, 56, 0
3, 14680, Note_on_c, 0, 52, 37
3, 14720, Note_on_c, 0, 52, 0
3, 14720, Note_on_c, 0, 56, 39
3, 14760, Note_on_c, 0, 56, 0
3, 14800, Note_on_c, 0, 52, 29
3, 14840, Note_on_c, 0, 52, 0
3, 14840, Note_on_c, 0, 56, 32
3, 14879, Note_on_c, 0, 32, 0
3, 14879, Note_on_c, 0, 44, 0
3, 14880, Note_on_c, 0, 56, 0
3, 14880, Note_on_c, 0, 51, 45
3, 14880, Note_on_c, 0, 32, 29
3, 14880, Note_on_c, 0, 44, 25
3, 14920, Note_on_c, 0, 51, 0
3, 14960, Note_on_c, 0, 54, 49
3, 15000, Note_on_c, 0, 54, 0
3, 15359, Note_on_c, 0, 44, 0
3, 15359, Note_on_c, 0, 32, 0
3, 15360, Note_on_c, 0, 44, 33
3, 15360, Note_on_c, 0, 52, 48
3, 15360, Note_on_c, 0, 32, 36
3, 15400, Note_on_c, 0, 52, 0
3, 15440, Note_on_c, 0, 56, 40
3, 15480, Note_on_c, 0, 56, 0
3, 15839, Note_on_c, 0, 32, 0
3, 15839, Note_on_c, 0, 44, 0
3, 15840, Note_on_c, 0, 32, 40
3, 15840, Note_on_c, 0, 44, 27
3, 16319, Note_on_c, 0, 44, 0
3, 16319, Note_on_c, 0, 32, 0
3, 16320, Note_on_c, 0, 32, 32
3, 16320, Note_on_c, 0, 44, 34
3, 17480, Note_on_c, 0, 54, 43
3, 17520, Note_on_c, 0, 54, 0
3, 17560, Note_on_c, 0, 51, 69
3, 17600, Note_on_c, 0, 54, 46
3, 17640, Note_on_c, 0, 54, 0
3, 17640, Note_on_c, 0, 51, 0
3, 17640, Note_on_c, 0, 49, 61
3, 17680, Note_on_c, 0, 54, 40
3, 17720, Note_on_c, 0, 54, 0
3, 17720, Note_on_c, 0, 49, 0
3, 17759, Note_on_c, 0, 44, 0
3, 17759, Note_on_c, 0, 32, 0
3, 17760, Note_on_c, 0, 44, 32
3, 17760, Note_on_c, 0, 32, 35
3, 17760, Note_on_c, 0, 48, 44
3, 17800, Note_on_c, 0, 54, 35
3, 17840, Note_on_c, 0, 54, 0
3, 17840, Note_on_c, 0, 56, 44
3, 17880, Note_on_c, 0, 56, 0
3, 17920, Note_on_c, 0, 56, 38
3, 17960, Note_on_c, 0, 56, 0
3, 17960, Note_on_c, 0, 54, 48
3, 17999, Note_on_c, 0, 48, 0
3, 18000, Note_on_c, 0, 54, 0
3, 18000, Note_on_c, 0, 51, 71
3, 18040, Note_on_c, 0, 54, 38
3, 18080, Note_on_c, 0, 54, 0
3, 18119, Note_on_c, 0, 51, 0
3, 18120, Note_on_c, 0, 49, 68
3, 18160, Note_on_c, 0, 54, 36
3, 18200, Note_on_c, 0, 54, 0
3, 18239, Note_on_c, 0, 44, 0
3, 18239, Note_on_c, 0, 32, 0
3, 18239, Note_on_c, 0, 49, 0
3, 18240, Note_on_c, 0, 32, 37
3, 18240, Note_on_c, 0, 48, 52
3, 18240, Note_on_c, 0, 44, 32
3, 18280, Note_on_c, 0, 54, 34
3, 18320, Note_on_c, 0, 54, 0
3, 18320, Note_on_c, 0, 56, 63
3, 18360, Note_on_c, 0, 56, 0
3, 18400, Note_on_c, 0, 56, 56
3, 18440, Note_on_c, 0, 56, 0
3, 18440, Note_on_c, 0, 54, 53
3, 18479, Note_on_c, 0, 48, 0
3, 18480, Note_on_c, 0, 54, 0
3, 18480, Note_on_c, 0, 50, 72
3, 18520, Note_on_c, 0, 54, 45
3, 18560, Note_on_c, 0, 54, 0
3, 18599, Note_on_c, 0, 50, 0
3, 18600, Note_on_c, 0, 49, 64
3, 18640, Note_on_c, 0, 54, 39
3, 18680, Note_on_c, 0, 54, 0
3, 18719, Note_on_c, 0, 32, 0
3, 18719, Note_on_c, 0, 44, 0
3, 18719, Note_on_c, 0, 49, 0
3, 18720, Note_on_c, 0, 44, 31
3, 18720, Note_on_c, 0, 32, 39
3, 18720, Note_on_c, 0, 48, 57
3, 18760, Note_on_c, 0, 54, 25
3, 18800, Note_on_c, 0, 54, 0
3, 18800, Note_on_c, 0, 56, 53
3, 18840, Note_on_c, 0, 56, 0
3, 18880, Note_on_c, 0, 56, 46
3, 18920, Note_on_c, 0, 56, 0
3, 18920, Note_on_c, 0, 54, 50
3, 18959, Note_on_c, 0, 44, 0
3, 18959, Note_on_c, 0, 48, 0
3, 18959, Note_on_c, 0, 32, 0
3, 18960, Note_on_c, 0, 54, 0
3, 18960, Note_on_c, 0, 45, 38
3, 18960, Note_on_c, 0, 33, 38
3, 18960, Note_on_c, 0, 49, 37
3, 19000, Note_on_c, 0, 52, 24
3, 19040, Note_on_c, 0, 52, 0
3, 19079, Note_on_c, 0, 49, 0
3, 19080, Note_on_c, 0, 49, 32
3, 19120, Note_on_c, 0, 49, 0
3, 19120, Note_on_c, 0, 52, 34
3, 19160, Note_on_c, 0, 52, 0
3, 19199, Note_on_c, 0, 33, 0
3, 19199, Note_on_c, 0, 45, 0
3, 19200, Note_on_c, 0, 30, 25
3, 19200, Note_on_c, 0, 42, 27
3, 19200, Note_on_c, 0, 51, 40
3, 19240, Note_on_c, 0, 51, 0
3, 19320, Note_on_c, 0, 51, 43
3, 19360, Note_on_c, 0, 51, 0
3, 19439, Note_on_c, 0, 42, 0
3, 19439, Note_on_c, 0, 30, 0
3, 19440, Note_on_c, 0, 32, 33
3, 19440, Note_on_c, 0, 44, 33
3, 19440, Note_on_c, 0, 51, 45
3, 19480, Note_on_c, 0, 51, 0
3, 19480, Note_on_c, 0, 56, 45
3, 19520, Note_on_c, 0, 56, 0
3, 19560, Note_on_c, 0, 51, 34
3, 19600, Note_on_c, 0, 51, 0
3, 19600, Note_on_c, 0, 54, 38
3, 19640, Note_on_c, 0, 54, 0
3, 19679, Note_on_c, 0, 44, 0
3, 19679, Note_on_c, 0, 32, 0
3, 19680, Note_on_c, 0, 49, 34
3, 19680, Note_on_c, 0, 52, 45
3, 19680, Note_on_c, 0, 44, 37
3, 19680, Note_on_c, 0, 37, 35
3, 19720, Note_on_c, 0, 52, 0
3, 19720, Note_on_c, 0, 56, 27
3, 19760, Note_on_c, 0, 56, 0
3, 19800, Note_on_c, 0, 56, 45
3, 19840, Note_on_c, 0, 56, 0
3, 19920, Note_on_c, 0, 56, 30
3, 19960, Note_on_c, 0, 56, 0
3, 20040, Note_on_c, 0, 56, 25
3, 20080, Note_on_c, 0, 56, 0
3, 20159, Note_on_c, 0, 49, 0
3, 20159, Note_on_c, 0, 44, 0
3, 20159, Note_on_c, 0, 37, 0
3, 20160, Note_on_c, 0, 36, 26
3, 20160, Note_on_c, 0, 48, 24
3, 20160, Note_on_c, 0, 56, 46
3, 20160, Note_on_c, 0, 44, 20
3, 20200, Note_on_c, 0, 56, 0
3, 20280, Note_on_c, 0, 56, 27
3, 20320, Note_on_c, 0, 56, 0
3, 20400, Note_on_c, 0, 56, 25
3, 20440, Note_on_c, 0, 56, 0
3, 20520, Note_on_c, 0, 56, 40
3, 20560, Note_on_c, 0, 56, 0
3, 20639, Note_on_c, 0, 44, 0
3, 20639, Note_on_c, 0, 48, 0
3, 20639, Note_on_c, 0, 36, 0
3, 20640, Note_on_c, 0, 37, 20
3, 20640, Note_on_c, 0, 56, 27
3, 20640, Note_on_c, 0, 49, 25
3, 20680, Note_on_c, 0, 56, 0
3, 20760, Note_on_c, 0, 56, 46
3, 20800, Note_on_c, 0, 56, 0
3, 20879, Note_on_c, 0, 49, 0
3, 20879, Note_on_c, 0, 37, 0
3, 20880, Note_on_c, 0, 42, 30
3, 20880, Note_on_c, 0, 30, 35
3, 21119, Note_on_c, 0, 30, 0
3, 21119, Note_on_c, 0, 42, 0
3, 21120, Note_on_c, 0, 47, 35
3, 21120, Note_on_c, 0, 56, 31
3, 21120, Note_on_c, 0, 35, 37
3, 21160, Note_on_c, 0, 56, 0
3, 21240, Note_on_c, 0, 56, 34
3, 21280, Note_on_c, 0, 56, 0
3, 21359, Note_on_c, 0, 35, 0
3, 21359, Note_on_c, 0, 47, 0
3, 21360, Note_on_c, 0, 35, 35
3, 21360, Note_on_c, 0, 47, 22
3, 21599, Note_on_c, 0, 47, 0
3, 21599, Note_on_c, 0, 35, 0
3, 21600, Note_on_c, 0, 40, 41
3, 21600, Note_on_c, 0, 52, 32
3, 21600, Note_on_c, 0, 56, 20
3, 21640, Note_on_c, 0, 56, 0
3, 22079, Note_on_c, 0, 52, 0
3, 22079, Note_on_c, 0, 40, 0
3, 22080, Note_on_c, 0, 51, 40
3, 22080, Note_on_c, 0, 39, 33
3, 22559, Note_on_c, 0, 39, 0
3, 22559, Note_on_c, 0, 51, 0
3, 22560, Note_on_c, 0, 52, 36
3, 22560, Note_on_c, 0, 40, 42
3, 22799, Note_on_c, 0, 40, 0
3, 22799, Note_on_c, 0, 52, 0
3, 22800, Note_on_c, 0, 39, 58
3, 22800, Note_on_c, 0, 51, 57
3, 22919, Note_on_c, 0, 51, 0
3, 22919, Note_on_c, 0, 39, 0
3, 22920, Note_on_c, 0, 37, 57
3, 22920, Note_on_c, 0, 49, 65
3, 23039, Note_on_c, 0, 49, 0
3, 23039, Note_on_c, 0, 37, 0
3, 23040, Note_on_c, 0, 44, 40
3, 23040, Note_on_c, 0, 48, 60
3, 23040, Note_on_c, 0, 36, 51
3, 23279, Note_on_c, 0, 36, 0
3, 23279, Note_on_c, 0, 48, 0
3, 23279, Note_on_c, 0, 44, 0
3, 23280, Note_on_c, 0, 37, 38
3, 23280, Note_on_c, 0, 49, 36
3, 23280, Note_on_c, 0, 44, 43
3, 23399, Note_on_c, 0, 44, 0
3, 23399, Note_on_c, 0, 49, 0
3, 23399, Note_on_c, 0, 37, 0
3, 23520, Note_on_c, 0, 42, 17
3, 23520, Note_on_c, 0, 30, 34
3, 23759, Note_on_c, 0, 30, 0
3, 23759, Note_on_c, 0, 42, 0
3, 23760, Note_on_c, 0, 32, 26
3, 23760, Note_on_c, 0, 44, 30
3, 23999, Note_on_c, 0, 44, 0
3, 23999, Note_on_c, 0, 32, 0
3, 24000, Note_on_c, 0, 49, 25
3, 24000, Note_on_c, 0, 37, 29
3, 24599, Note_on_c, 0, 37, 0
3, 24599, Note_on_c, 0, 49, 0
3, 24600, Note_on_c, 0, 42, 49
3, 24600, Note_on_c, 0, 54, 48
3, 24719, Note_on_c, 0, 54, 0
3, 24719, Note_on_c, 0, 42, 0
3, 24720, Note_on_c, 0, 45, 79
3, 24839, Note_on_c, 0, 45, 0
3, 24840, Note_on_c, 0, 42, 31
3, 24840, Note_on_c, 0, 54, 31
3, 24959, Note_on_c, 0, 54, 0
3, 24959, Note_on_c, 0, 42, 0
3, 24960, Note_on_c, 0, 49, 34
3, 24960, Note_on_c, 0, 37, 27
3, 25559, Note_on_c, 0, 37, 0
3, 25559, Note_on_c, 0, 49, 0
3, 25560, Note_on_c, 0, 54, 44
3, 25560, Note_on_c, 0, 42, 50
3, 25679, Note_on_c, 0, 42, 0
3, 25679, Note_on_c, 0, 54, 0
3, 25680, Note_on_c, 0, 45, 72
3, 25799, Note_on_c, 0, 45, 0
3, 25800, Note_on_c, 0, 42, 39
3, 25800, Note_on_c, 0, 54, 30
3, 25919, Note_on_c, 0, 54, 0
3, 25919, Note_on_c, 0, 42, 0
3, 25920, Note_on_c, 0, 37, 35
3, 25920, Note_on_c, 0, 49, 25
3, 26159, Note_on_c, 0, 49, 0
3, 26159, Note_on_c, 0, 37, 0
3, 26160, Note_on_c, 0, 42, 26
3, 26160, Note_on_c, 0, 30, 28
3, 26399, Note_on_c, 0, 30, 0
3, 26399, Note_on_c, 0, 42, 0
3, 26400, Note_on_c, 0, 39, 38
3, 26400, Note_on_c, 0, 51, 29
3, 26759, Note_on_c, 0, 51, 0
3, 26759, Note_on_c, 0, 39, 0
3, 26760, Note_on_c, 0, 40, 32
3, 26760, Note_on_c, 0, 52, 24
3, 26879, Note_on_c, 0, 52, 0
3, 26879, Note_on_c, 0, 40, 0
3, 26880, Note_on_c, 0, 37, 37
3, 26880, Note_on_c, 0, 49, 39
3, 26999, Note_on_c, 0, 49, 0
3, 26999, Note_on_c, 0, 37, 0
3, 27000, Note_on_c, 0, 51, 38
3, 27000, Note_on_c, 0, 39, 39
3, 27119, Note_on_c, 0, 39, 0
3, 27119, Note_on_c, 0, 51, 0
3, 27120, Note_on_c, 0, 36, 39
3, 27120, Note_on_c, 0, 56, 38
3, 27120, Note_on_c, 0, 48, 35
3, 27160, Note_on_c, 0, 56, 0
3, 27239, Note_on_c, 0, 48, 0
3, 27239, Note_on_c, 0, 36, 0
3, 27240, Note_on_c, 0, 56, 38
3, 27240, Note_on_c, 0, 49, 33
3, 27240, Note_on_c, 0, 37, 36
3, 27280, Note_on_c, 0, 56, 0
3, 27359, Note_on_c, 0, 37, 0
3, 27359, Note_on_c, 0, 49, 0
3, 27360, Note_on_c, 0, 54, 48
3, 27360, Note_on_c, 0, 45, 34
3, 27360, Note_on_c, 0, 33, 29
3, 27400, Note_on_c, 0, 54, 0
3, 27480, Note_on_c, 0, 54, 46
3, 27520, Note_on_c, 0, 54, 0
3, 27599, Note_on_c, 0, 33, 0
3, 27599, Note_on_c, 0, 45, 0
3, 27600, Note_on_c, 0, 32, 44
3, 27600, Note_on_c, 0, 44, 40
3, 27600, Note_on_c, 0, 56, 54
3, 27640, Note_on_c, 0, 56, 0
3, 27719, Note_on_c, 0, 44, 0
3, 27719, Note_on_c, 0, 32, 0
3, 27720, Note_on_c, 0, 30, 45
3, 27720, Note_on_c, 0, 42, 44
3, 27839, Note_on_c, 0, 42, 0
3, 27839, Note_on_c, 0, 30, 0
3, 27840, Note_on_c, 0, 32, 43
3, 27840, Note_on_c, 0, 56, 45
3, 27840, Note_on_c, 0, 44, 31
3, 27880, Note_on_c, 0, 56, 0
3, 27960, Note_on_c, 0, 56, 32
3, 28000, Note_on_c, 0, 56, 0
3, 28079, Note_on_c, 0, 44, 0
3, 28079, Note_on_c, 0, 32, 0
3, 28080, Note_on_c, 0, 54, 13
3, 28080, Note_on_c, 0, 32, 35
3, 28080, Note_on_c, 0, 44, 30
3, 28120, Note_on_c, 0, 54, 0
3, 28200, Note_on_c, 0, 54, 42
3, 28240, Note_on_c, 0, 54, 0
3, 28319, Note_on_c, 0, 44, 0
3, 28319, Note_on_c, 0, 32, 0
3, 28320, Note_on_c, 0, 44, 27
3, 28320, Note_on_c, 0, 52, 39
3, 28320, Note_on_c, 0, 37, 33
3, 28360, Note_on_c, 0, 52, 0
3, 28360, Note_on_c, 0, 56, 34
3, 28400, Note_on_c, 0, 56, 0
3, 28440, Note_on_c, 0, 56, 44
3, 28480, Note_on_c, 0, 56, 0
3, 28560, Note_on_c, 0, 56, 36
3, 28600, Note_on_c, 0, 56, 0
3, 28679, Note_on_c, 0, 44, 0
3, 28680, Note_on_c, 0, 56, 43
3, 28680, Note_on_c, 0, 44, 61
3, 28720, Note_on_c, 0, 56, 0
3, 28770, Note_on_c, 0, 44, 0
3, 28770, Note_on_c, 0, 44, 61
3, 28799, Note_on_c, 0, 37, 0
3, 28800, Note_on_c, 0, 44, 0
3, 28800, Note_on_c, 0, 36, 52
3, 28800, Note_on_c, 0, 44, 46
3, 28800, Note_on_c, 0, 56, 51
3, 28840, Note_on_c, 0, 56, 0
3, 28920, Note_on_c, 0, 56, 46
3, 28960, Note_on_c, 0, 56, 0
3, 29040, Note_on_c, 0, 56, 44
3, 29080, Note_on_c, 0, 56, 0
3, 29159, Note_on_c, 0, 44, 0
3, 29160, Note_on_c, 0, 56, 56
3, 29160, Note_on_c, 0, 44, 64
3, 29200, Note_on_c, 0, 56, 0
3, 29250, Note_on_c, 0, 44, 0
3, 29250, Note_on_c, 0, 44, 48
3, 29279, Note_on_c, 0, 36, 0
3, 29280, Note_on_c, 0, 44, 0
3, 29280, Note_on_c, 0, 56, 45
3, 29280, Note_on_c, 0, 44, 55
3, 29280, Note_on_c, 0, 37, 43
3, 29320, Note_on_c, 0, 56, 0
3, 29639, Note_on_c, 0, 44, 0
3, 29640, Note_on_c, 0, 44, 69
3, 29730, Note_on_c, 0, 44, 0
3, 29730, Note_on_c, 0, 44, 62
3, 29759, Note_on_c, 0, 37, 0
3, 29760, Note_on_c, 0, 44, 0
3, 29760, Note_on_c, 0, 32, 60
3, 29760, Note_on_c, 0, 44, 60
3, 30119, Note_on_c, 0, 44, 0
3, 30119, Note_on_c, 0, 32, 0
3, 30120, Note_on_c, 0, 44, 49
3, 30160, Note_on_c, 0, 56, 36
3, 30200, Note_on_c, 0, 56, 0
3, 30200, Note_on_c, 0, 54, 56
3, 30210, Note_on_c, 0, 44, 0
3, 30210, Note_on_c, 0, 44, 51
3, 30240, Note_on_c, 0, 44, 0
3, 30240, Note_on_c, 0, 54, 0
3, 30240, Note_on_c, 0, 52, 51
3, 30240, Note_on_c, 0, 37, 44
3, 30240, Note_on_c, 0, 44, 52
3, 30280, Note_on_c, 0, 52, 0
3, 30599, Note_on_c, 0, 44, 0
3, 30599, Note_on_c, 0, 37, 0
3, 30600, Note_on_c, 0, 44, 61
3, 30690, Note_on_c, 0, 44, 0
3, 30690, Note_on_c, 0, 44, 64
3, 30720, Note_on_c, 0, 44, 0
3, 30720, Note_on_c, 0, 32, 54
3, 30720, Note_on_c, 0, 44, 61
3, 31079, Note_on_c, 0, 44, 0
3, 31079, Note_on_c, 0, 32, 0
3, 31080, Note_on_c, 0, 44, 56
3, 31120, Note_on_c, 0, 56, 52
3, 31160, Note_on_c, 0, 56, 0
3, 31160, Note_on_c, 0, 54, 47
3, 31170, Note_on_c, 0, 44, 0
3, 31170, Note_on_c, 0, 44, 51
3, 31200, Note_on_c, 0, 44, 0
3, 31200, Note_on_c, 0, 54, 0
3, 31200, Note_on_c, 0, 44, 46
3, 31200, Note_on_c, 0, 52, 49
3, 31200, Note_on_c, 0, 37, 47
3, 31240, Note_on_c, 0, 52, 0
3, 31240, Note_on_c, 0, 56, 45
3, 31280, Note_on_c, 0, 56, 0
3, 31400, Note_on_c, 0, 56, 30
3, 31439, Note_on_c, 0, 44, 0
3, 31440, Note_on_c, 0, 56, 0
3, 31440, Note_on_c, 0, 49, 54
3, 31480, Note_on_c, 0, 52, 29
3, 31520, Note_on_c, 0, 52, 0
3, 31520, Note_on_c, 0, 56, 33
3, 31560, Note_on_c, 0, 56, 0
3, 31600, Note_on_c, 0, 56, 40
3, 31640, Note_on_c, 0, 56, 0
3, 31640, Note_on_c, 0, 52, 34
3, 31679, Note_on_c, 0, 49, 0
3, 31680, Note_on_c, 0, 52, 0
3, 31680, Note_on_c, 0, 44, 38
3, 31720, Note_on_c, 0, 49, 38
3, 31760, Note_on_c, 0, 49, 0
3, 31760, Note_on_c, 0, 52, 35
3, 31799, Note_on_c, 0, 44, 0
3, 31800, Note_on_c, 0, 52, 0
3, 31800, Note_on_c, 0, 56, 51
3, 31840, Note_on_c, 0, 56, 0
3, 31840, Note_on_c, 0, 52, 37
3, 31880, Note_on_c, 0, 52, 0
3, 31880, Note_on_c, 0, 49, 36
3, 31920, Note_on_c, 0, 49, 0
3, 31920, Note_on_c, 0, 44, 33
3, 31960, Note_on_c, 0, 44, 0
3, 31960, Note_on_c, 0, 49, 36
3, 32000, Note_on_c, 0, 49, 0
3, 32000, Note_on_c, 0, 44, 40
3, 32040, Note_on_c, 0, 44, 0
3, 32040, Note_on_c, 0, 40, 44
3, 32080, Note_on_c, 0, 40, 0
3, 32080, Note_on_c, 0, 44, 39
3, 32120, Note_on_c, 0, 44, 0
3, 32120, Note_on_c, 0, 40, 41
3, 32159, Note_on_c, 0, 37, 0
3, 32160, Note_on_c, 0, 40, 0
3, 32160, Note_on_c, 0, 37, 43
3, 32399, Note_on_c, 0, 37, 0
3, 32400, Note_on_c, 0, 37, 33
3, 32400, Note_on_c, 0, 44, 33
3, 32400, Note_on_c, 0, 49, 27
3, 32400, Note_on_c, 0, 52, 34
3, 32400, Note_on_c, 0, 56, 51
3, 32639, Note_on_c, 0, 56, 0
3, 32639, Note_on_c, 0, 49, 0
3, 32639, Note_on_c, 0, 37, 0
3, 32639, Note_on_c, 0, 44, 0
3, 32639, Note_on_c, 0, 52, 0
3, 32640, Note_on_c, 0, 37, 22
3, 32640, Note_on_c, 0, 49, 23
3, 32640, Note_on_c, 0, 44, 29
3, 32640, Note_on_c, 0, 52, 18
3, 32640, Note_on_c, 0, 56, 38
3, 33119, Note_on_c, 0, 56, 0
3, 33119, Note_on_c, 0, 44, 0
3, 33119, Note_on_c, 0, 37, 0
3, 33119, Note_on_c, 0, 49, 0
3, 33119, Note_on_c, 0, 52, 0
3, 33119, End_track
4, 0, Start_track
4, 0, MIDI_port, 0
4, 0, Title_t, "by Beethoven"
4, 0, End_track
5, 0, Start_track
5, 0, MIDI_port, 0
5, 0, Title_t, "G.J.Arsante"
5, 0, End_track
6, 0, Start_track
6, 0, MIDI_port, 0
6, 0, End_track
7, 0, Start_track
7, 0, MIDI_port, 0
7, 0, End_track
8, 0, Start_track
8, 0, MIDI_port, 0
8, 0, End_track
0, 0, End_of_file
